<?xml version="1.0" encoding="UTF-8" standalone="no"?><!DOCTYPE svg PUBLIC "-//W3C//DTD SVG 1.1//EN" "http://www.w3.org/Graphics/SVG/1.1/DTD/svg11.dtd"><svg width="100%" height="100%" viewBox="0 0 595 72" version="1.1" xmlns="http://www.w3.org/2000/svg" xmlns:xlink="http://www.w3.org/1999/xlink" xml:space="preserve" xmlns:serif="http://www.serif.com/" style="fill-rule:evenodd;clip-rule:evenodd;stroke-linejoin:round;stroke-miterlimit:1.41421;"><rect id="Artboard1" x="0" y="0" width="59.76" height="72" style="fill:none;"/><g transform="matrix(0.24,0,0,0.24,1.66332,0)"><text x="68.011px" y="25.444px" style="font-family:'CourierNewPS-BoldMT', 'Courier New', monospace;font-weight:700;font-size:6.667px;">%&amp;&amp;&amp;&amp;&amp;&amp;&amp;&amp;&amp;&amp;&amp;&amp;&amp;&amp;&amp;&amp;&amp;&amp;/</text><text x="32.005px" y="32.111px" style="font-family:'CourierNewPS-BoldMT', 'Courier New', monospace;font-weight:700;font-size:6.667px;">%&amp;&amp;&amp;&amp;&amp;&amp;&amp;&amp;&amp;,. ...........,...&amp;&amp;&amp;&amp;&amp;&amp;&amp;&amp;&amp;&amp;</text><text x="24.004px" y="38.778px" style="font-family:'CourierNewPS-BoldMT', 'Courier New', monospace;font-weight:700;font-size:6.667px;">#@&amp;&amp;%%&amp;&amp;&amp;&amp;&amp;&amp;&amp;&amp;&amp;&amp;&amp;&amp;&amp;&amp;&amp;&amp;&amp;@@@@@&amp;&amp;&amp;&amp;&amp;&amp;&amp;&amp;&amp;&amp;%&amp;</text><text x="24.004px" y="45.444px" style="font-family:'CourierNewPS-BoldMT', 'Courier New', monospace;font-weight:700;font-size:6.667px;">*&amp;..     .(&amp;@@@@@@@@@@@@@@@@@@@@@@(  . *#,%/ ,&amp;</text><text x="28.005px" y="52.111px" style="font-family:'CourierNewPS-BoldMT', 'Courier New', monospace;font-weight:700;font-size:6.667px;">&amp;..          ,,.  .....  ,*  ...     .*&amp;*    ,/</text><text x="28.005px" y="58.778px" style="font-family:'CourierNewPS-BoldMT', 'Courier New', monospace;font-weight:700;font-size:6.667px;">&amp;..          *..  .....  ,* ....      *%.&amp;  .*,</text><text x="28.005px" y="65.444px" style="font-family:'CourierNewPS-BoldMT', 'Courier New', monospace;font-weight:700;font-size:6.667px;">&amp;,.          */   .....  ,* ....      *&amp;*#   *,/</text><text x="28.005px" y="72.111px" style="font-family:'CourierNewPS-BoldMT', 'Courier New', monospace;font-weight:700;font-size:6.667px;">%*.                          ...     .*@ *   ,(*</text><text x="28.005px" y="78.778px" style="font-family:'CourierNewPS-BoldMT', 'Courier New', monospace;font-weight:700;font-size:6.667px;">*#..                        ....     .*&amp; (&amp;  .*,/</text><text x="28.005px" y="85.444px" style="font-family:'CourierNewPS-BoldMT', 'Courier New', monospace;font-weight:700;font-size:6.667px;">.&amp;..                        ....     .*(  #   *(*</text><text x="28.005px" y="92.111px" style="font-family:'CourierNewPS-BoldMT', 'Courier New', monospace;font-weight:700;font-size:6.667px;">.&amp;..                        ....     .**  **  .//,</text><text x="32.005px" y="98.778px" style="font-family:'CourierNewPS-BoldMT', 'Courier New', monospace;font-weight:700;font-size:6.667px;">@..                        ....     .*/  #%   ***</text><text x="32.005px" y="105.444px" style="font-family:'CourierNewPS-BoldMT', 'Courier New', monospace;font-weight:700;font-size:6.667px;">&amp;..                        ....     ,#,   (   ,*/</text><text x="32.005px" y="112.111px" style="font-family:'CourierNewPS-BoldMT', 'Courier New', monospace;font-weight:700;font-size:6.667px;">&amp;,.                        ....     ,&amp;,   */  .*,#</text><text x="32.005px" y="118.778px" style="font-family:'CourierNewPS-BoldMT', 'Courier New', monospace;font-weight:700;font-size:6.667px;">@,.            *           ....     ,&amp;    @*  ./**</text><text x="32.005px" y="125.444px" style="font-family:'CourierNewPS-BoldMT', 'Courier New', monospace;font-weight:700;font-size:6.667px;">//.                        ...     .,(    / @&amp;(/(*</text><text x="32.005px" y="132.111px" style="font-family:'CourierNewPS-BoldMT', 'Courier New', monospace;font-weight:700;font-size:6.667px;">.&amp;..    ..                 ...     .,*  %..&amp;&amp;@@&amp;%*</text><text x="32.005px" y="138.778px" style="font-family:'CourierNewPS-BoldMT', 'Courier New', monospace;font-weight:700;font-size:6.667px;">&amp;(..    ...                ..,*,,,.*%* .,*(,*</text><text x="36.006px" y="145.444px" style="font-family:'CourierNewPS-BoldMT', 'Courier New', monospace;font-weight:700;font-size:6.667px;">*,.     ..     ..  ./*, . ...,...*.@**,,</text><text x="36.006px" y="152.111px" style="font-family:'CourierNewPS-BoldMT', 'Courier New', monospace;font-weight:700;font-size:6.667px;">**.     ..*%(..........//#,..   ,.*@.</text><text x="36.006px" y="158.778px" style="font-family:'CourierNewPS-BoldMT', 'Courier New', monospace;font-weight:700;font-size:6.667px;">,&amp;,..(#/*.../..........*..,*%(/  ,/#</text><text x="36.006px" y="165.444px" style="font-family:'CourierNewPS-BoldMT', 'Courier New', monospace;font-weight:700;font-size:6.667px;">*/(((,/.*%(*(/%,%@,.***/#***,..%##</text><text x="36.006px" y="172.111px" style="font-family:'CourierNewPS-BoldMT', 'Courier New', monospace;font-weight:700;font-size:6.667px;">.,&amp;.*..,%%%#((///(((#@%%%%(..*((,%</text><text x="40.007px" y="178.778px" style="font-family:'CourierNewPS-BoldMT', 'Courier New', monospace;font-weight:700;font-size:6.667px;">,&amp;%/,.*%%&amp;&amp;&amp;&amp;&amp;&amp;&amp;&amp;&amp;&amp;&amp;&amp;&amp;&amp;&amp;@&amp;&amp;(..,/%.%</text><text x="40.007px" y="185.444px" style="font-family:'CourierNewPS-BoldMT', 'Courier New', monospace;font-weight:700;font-size:6.667px;">,###//(&amp;&amp;&amp;&amp;&amp;&amp;&amp;&amp;&amp;&amp;&amp;&amp;&amp;&amp;&amp;&amp;&amp;@@&amp;%/,*,#.</text><text x="44.007px" y="192.111px" style="font-family:'CourierNewPS-BoldMT', 'Courier New', monospace;font-weight:700;font-size:6.667px;">%%####&amp;&amp;&amp;&amp;&amp;&amp;&amp;&amp;&amp;&amp;@@@&amp;&amp;&amp;&amp;&amp;&amp;&amp;%##(%@,</text><text x="44.007px" y="198.778px" style="font-family:'CourierNewPS-BoldMT', 'Courier New', monospace;font-weight:700;font-size:6.667px;">@,  .(#%&amp;%%%########((##%%#(, ./</text><text x="40.007px" y="205.444px" style="font-family:'CourierNewPS-BoldMT', 'Courier New', monospace;font-weight:700;font-size:6.667px;">&amp;&amp;%@@&amp;&amp;%%&amp;&amp;&amp;&amp;&amp;%%%%%%%%%%%#&amp;%%%@&amp;&amp;&amp;</text><text x="40.007px" y="212.111px" style="font-family:'CourierNewPS-BoldMT', 'Courier New', monospace;font-weight:700;font-size:6.667px;">&amp;&amp;&amp;&amp;%&amp;&amp;&amp;&amp;&amp;&amp;&amp;&amp;&amp;&amp;&amp;&amp;&amp;&amp;&amp;&amp;&amp;&amp;&amp;&amp;&amp;&amp;&amp;%%&amp;&amp;&amp;</text><text x="36.006px" y="218.778px" style="font-family:'CourierNewPS-BoldMT', 'Courier New', monospace;font-weight:700;font-size:6.667px;">@&amp;&amp;&amp;%&amp;&amp;&amp;&amp;&amp;&amp;&amp;&amp;&amp;&amp;&amp;&amp;&amp;&amp;&amp;&amp;&amp;&amp;&amp;&amp;&amp;&amp;&amp;&amp;%%%%&amp;&amp;@</text><text x="32.005px" y="225.444px" style="font-family:'CourierNewPS-BoldMT', 'Courier New', monospace;font-weight:700;font-size:6.667px;">@&amp;&amp;&amp;%%%%%&amp;&amp;&amp;&amp;&amp;&amp;/&amp;(/&amp;&amp;&amp;(/&amp;&amp;&amp;&amp;&amp;&amp;&amp;%%%&amp;&amp;&amp;@</text><text x="28.005px" y="232.111px" style="font-family:'CourierNewPS-BoldMT', 'Courier New', monospace;font-weight:700;font-size:6.667px;">@&amp;&amp;&amp;%%%%%&amp;&amp;&amp;&amp;&amp;&amp;&amp;&amp;&amp;&amp;&amp;&amp;&amp;&amp;&amp;&amp;&amp;&amp;&amp;&amp;&amp;&amp;&amp;%%%%%&amp;&amp;@</text><text x="24.004px" y="238.778px" style="font-family:'CourierNewPS-BoldMT', 'Courier New', monospace;font-weight:700;font-size:6.667px;">@@&amp;&amp;&amp;%%%%&amp;&amp;&amp;&amp;&amp;&amp;&amp;&amp;&amp;@@@@@&amp;&amp;&amp;&amp;&amp;&amp;&amp;&amp;&amp;&amp;%%%%%%%@@</text><text x="20.003px" y="245.444px" style="font-family:'CourierNewPS-BoldMT', 'Courier New', monospace;font-weight:700;font-size:6.667px;">@@&amp;&amp;&amp;%%%%%&amp;&amp;%&amp;&amp;&amp;&amp;&amp;&amp;&amp;&amp;&amp;.&amp;&amp;&amp;&amp;@&amp;&amp;&amp;&amp;&amp;&amp;%%%#%%%&amp;@@</text><text x="16.003px" y="252.111px" style="font-family:'CourierNewPS-BoldMT', 'Courier New', monospace;font-weight:700;font-size:6.667px;">@@&amp;&amp;&amp;%%%%%&amp;&amp;(%%&amp;&amp;&amp;*////////,&amp;%&amp;%%&amp;&amp;&amp;&amp;&amp;%%%%&amp;&amp;&amp;@</text><text x="12.002px" y="258.778px" style="font-family:'CourierNewPS-BoldMT', 'Courier New', monospace;font-weight:700;font-size:6.667px;">@@@@&amp;%%%%&amp;&amp;&amp;&amp;&amp;&amp;%&amp;&amp;@&amp;(/(((/((&amp;@%&amp;%&amp;/%&amp;&amp;&amp;%%%%&amp;&amp;&amp;&amp;@</text><text x="8.001px" y="265.444px" style="font-family:'CourierNewPS-BoldMT', 'Courier New', monospace;font-weight:700;font-size:6.667px;">@@@&amp;&amp;&amp;&amp;%%&amp;&amp;&amp;&amp;&amp;&amp;@%@@@&amp;%@@@@@@%@@@@@@#@&amp;&amp;&amp;&amp;&amp;&amp;%&amp;&amp;&amp;@@@</text><text x="4.001px" y="272.111px" style="font-family:'CourierNewPS-BoldMT', 'Courier New', monospace;font-weight:700;font-size:6.667px;">&amp;@@@&amp;&amp;&amp;&amp;%&amp;&amp;&amp;&amp;&amp;&amp;@@@@@@@&amp;@@@@@&amp;&amp;@@@@@@@&amp;&amp;&amp;&amp;&amp;&amp;%&amp;&amp;&amp;&amp;&amp;@@@</text><text x="0px" y="278.778px" style="font-family:'CourierNewPS-BoldMT', 'Courier New', monospace;font-weight:700;font-size:6.667px;">.@@@@&amp;&amp;&amp;&amp;&amp;&amp;&amp;&amp;&amp;&amp;&amp;&amp;%#%&amp;@@@@@@@@@&amp;&amp;@&amp;%#%&amp;&amp;&amp;&amp;&amp;&amp;&amp;&amp;&amp;&amp;&amp;@&amp;@@@@</text><text x="16.003px" y="285.444px" style="font-family:'CourierNewPS-BoldMT', 'Courier New', monospace;font-weight:700;font-size:6.667px;">@&amp;&amp;&amp;&amp;&amp;&amp;&amp;&amp;&amp;&amp;&amp;&amp;&amp;&amp;&amp;&amp;&amp;(((&amp;(/&amp;(&amp;&amp;&amp;&amp;&amp;&amp;&amp;&amp;&amp;&amp;&amp;&amp;&amp;&amp;&amp;&amp;&amp;&amp;&amp;&amp;</text></g><rect id="Artboard2" x="79.68" y="0" width="93.36" height="72" style="fill:none;"/><path d="M157.668,23.152l-21.178,-21.178l-12.849,12.848l21.179,21.178l-21.179,21.179l12.849,12.847l21.178,-21.177l12.848,-12.849l-12.848,-12.848Z" style="fill:none;stroke:#000;stroke-width:1px;"/><path d="M117.534,23.152l-21.178,-21.178l-12.848,12.848l21.178,21.178l-21.178,21.179l12.848,12.847l21.178,-21.177l12.848,-12.849l-12.848,-12.848Z" style="fill:none;stroke:#000;stroke-width:1px;"/><rect id="Artboard3" x="197.04" y="0" width="77.28" height="72" style="fill:none;"/><path d="M244.113,52.645l21.107,-36.558l-11.711,-6.762l-21.106,36.559l-19.304,-11.145l-6.76,11.711l19.302,11.145l11.711,6.761l6.761,-11.711Z" style="fill:none;stroke:#000;stroke-width:1px;"/><path d="M225.641,57.595l7.974,4.603l-11.034,0c-7.23,0 -13.099,-5.869 -13.099,-13.099l0,-0.834l16.159,9.33Zm36.202,-35.659c0.023,0.319 0.035,0.64 0.035,0.965l0,26.198c0,7.23 -5.869,13.099 -13.099,13.099l-10.181,0l5.515,-9.553l17.73,-30.709Zm-13.064,-12.134c1.424,0 2.796,0.228 4.08,0.649l-20.456,35.433l-19.304,-11.145l-3.617,6.266l0,-18.104c0,-7.23 5.869,-13.099 13.099,-13.099l26.198,0Z" style="fill:none;stroke:#000;stroke-width:1px;stroke-linecap:round;stroke-miterlimit:1.5;"/><rect id="Artboard4" x="293.04" y="0" width="130.56" height="72" style="fill:none;"/><path id="path6219" d="M326.192,13.309c2.833,0 5.136,-2.306 5.136,-5.136c0,-2.829 -2.303,-5.135 -5.136,-5.135c-2.823,0 -5.132,2.306 -5.132,5.135c0,2.83 2.309,5.136 5.132,5.136" style="fill:none;stroke:#000;stroke-width:1px;"/><path id="path6223" d="M402.274,29.55c2.826,0 5.135,-2.309 5.135,-5.133c0,-2.832 -2.309,-5.135 -5.135,-5.135c-2.827,0 -5.136,2.303 -5.136,5.135c0,2.824 2.309,5.133 5.136,5.133" style="fill:none;stroke:#000;stroke-width:1px;"/><path id="path6227" d="M319.539,10.26l-12.797,8.555c-1.641,0.957 -2.256,2.462 -1.738,4.59c0.147,0.665 0.339,1.216 0.486,1.878c-2.08,-0.537 -4.173,-0.921 -6.259,-1.461l-1.391,5.981l17.666,3.895l5.146,9.876l5.981,-1.391l-1.321,-6.398l65.724,14.257l-3.895,5.216l4.799,3.756l8.903,-6.746l17.665,3.895l1.252,-5.982c-2.114,-0.389 -4.209,-0.932 -6.329,-1.321c0.415,-0.537 0.84,-0.993 1.252,-1.53c1.363,-1.717 1.502,-3.311 0.417,-4.869l-8.068,-13.144c-2.092,0.375 -4.167,0.734 -6.259,1.112c-2.988,2.014 -5.984,4.031 -8.972,6.051c-0.923,0.651 -1.321,1.566 -1.182,2.713l0.348,1.53l-1.322,2.851l-60.369,-13.075l0,-3.13l0.974,-1.252c0.615,-0.982 0.634,-1.939 0.07,-2.921c-1.864,-3.085 -3.706,-6.162 -5.564,-9.25c-1.739,-1.224 -3.478,-2.462 -5.217,-3.686Zm3.2,8.555l4.938,6.05l-0.557,5.217l-3.477,-0.765l-5.008,-6.121l4.104,-4.381Zm77.756,16.9l1.878,5.703l-7.094,3.408l-3.478,-0.765l1.669,-4.938l7.025,-3.408Z" style="fill:none;stroke:#000;stroke-width:1px;"/><path id="path6235" d="M352.735,69.015l0,-20.094l6.07,-5.464l6.204,5.464l0,20.094l-12.274,0Z" style="fill:none;stroke:#000;stroke-width:1px;"/><rect id="Artboard6" x="522.48" y="0" width="72" height="72" style="fill:none;"/><rect x="526.8" y="34.14" width="18.023" height="3.721" style="fill:none;stroke:#000;stroke-width:1px;"/><rect x="526.8" y="34.14" width="18.023" height="3.721" style="fill:none;stroke:#000;stroke-width:1px;"/><rect x="549.468" y="34.14" width="18.024" height="3.721" style="fill:none;stroke:#000;stroke-width:1px;"/><rect x="549.468" y="34.14" width="18.024" height="3.721" style="fill:none;stroke:#000;stroke-width:1px;"/><rect x="572.136" y="34.14" width="18.024" height="3.721" style="fill:none;stroke:#000;stroke-width:1px;"/><rect x="572.136" y="34.14" width="18.024" height="3.721" style="fill:none;stroke:#000;stroke-width:1px;"/></svg>