<?xml version="1.0" encoding="UTF-8" standalone="no"?>
<!DOCTYPE svg PUBLIC "-//W3C//DTD SVG 1.1//EN" "http://www.w3.org/Graphics/SVG/1.1/DTD/svg11.dtd">
<svg width="100%" height="100%" viewBox="0 0 300 300" version="1.1" xmlns="http://www.w3.org/2000/svg" xmlns:xlink="http://www.w3.org/1999/xlink" xml:space="preserve" xmlns:serif="http://www.serif.com/" style="fill-rule:evenodd;clip-rule:evenodd;stroke-linecap:round;stroke-linejoin:round;stroke-miterlimit:1.5;">
    <g transform="matrix(1,0,0,1,-3460,0)">
        <rect id="Artboard11" x="3460" y="0" width="300" height="300" style="fill:none;"/>
        <clipPath id="_clip1">
            <rect id="Artboard111" serif:id="Artboard11" x="3460" y="0" width="300" height="300"/>
        </clipPath>
        <g clip-path="url(#_clip1)">
            <g transform="matrix(1.12924,0,0,1.04681,-837.199,-18.0754)">
                <path d="M3899.19,65.604C3915.27,61.783 3916.67,38.653 3932.84,35.918C3946.09,33.677 3953.98,52.076 3963.98,57.334C3973.07,62.113 3982.01,52.086 3989.43,49.54C4014.36,40.988 4022.86,68.726 4025.96,72.65C4034.09,82.919 4021.06,94.121 4020.1,104.486C4019.73,108.503 4022.44,115.183 4022.58,119.111C4022.84,126.052 4015.77,130.051 4013.2,135.641C4009.12,144.519 4020.54,149.222 4020.79,157.405C4020.97,162.891 4019.6,168.341 4019.62,173.829C4019.64,179.438 4027.25,175.208 4029.37,175.783C4033.25,176.836 4036.75,179.046 4040.17,181.16C4054.54,190.049 4064.3,203.504 4067.85,220.056C4071.26,235.922 4049.14,244.133 4037.82,247.899C4034.23,249.092 4030.69,250.7 4026.92,251.048C4015,252.15 4009.77,239.406 3999.95,235.555C3993.37,232.973 3989.68,241.517 3983.22,240.241C3980.06,239.617 3952.4,254.776 3944.94,259.482C3937.78,264.002 3934.14,252.673 3927.02,254.717C3913.99,258.458 3907.7,272.397 3894.65,276.087C3883.79,279.157 3873.7,270.671 3866.14,264.517C3851.54,252.626 3836.04,239.946 3827.66,222.526C3824.17,215.254 3830.06,207.468 3834.08,202.165C3841.84,191.92 3853.48,185.71 3862.75,177.102C3866.67,173.462 3869.56,168.524 3868.77,162.891C3868.04,157.677 3863.49,152.53 3859.63,149.433C3853.77,144.717 3847.55,140.456 3841.41,136.103C3831.1,128.792 3809.89,118.506 3817.23,102.419C3818.47,99.686 3819.95,97.006 3821.89,94.705C3826.57,89.13 3831.6,83.835 3836.96,78.908C3846.02,70.575 3858.25,62.289 3868.87,56.149C3880.46,49.45 3887.6,68.358 3899.19,65.604" style="fill:none;stroke:black;stroke-width:3.83px;"/>
            </g>
            <g transform="matrix(0.56462,0.906563,-0.977951,0.523404,1541.3,-3509.94)">
                <path d="M3899.19,65.604C3915.27,61.783 3916.67,38.653 3932.84,35.918C3946.09,33.677 3953.98,52.076 3963.98,57.334C3973.07,62.113 3982.01,52.086 3989.43,49.54C4014.36,40.988 4022.86,68.726 4025.96,72.65C4034.09,82.919 4021.06,94.121 4020.1,104.486C4019.73,108.503 4022.44,115.183 4022.58,119.111C4022.84,126.052 4015.77,130.051 4013.2,135.641C4009.12,144.519 4020.54,149.222 4020.79,157.405C4020.97,162.891 4019.6,168.341 4019.62,173.829C4019.64,179.438 4027.25,175.208 4029.37,175.783C4033.25,176.836 4036.75,179.046 4040.17,181.16C4054.54,190.049 4064.3,203.504 4067.85,220.056C4071.26,235.922 4049.14,244.133 4037.82,247.899C4034.23,249.092 4030.69,250.7 4026.92,251.048C4015,252.15 4009.77,239.406 3999.95,235.555C3993.37,232.973 3989.68,241.517 3983.22,240.241C3980.06,239.617 3952.4,254.776 3944.94,259.482C3937.78,264.002 3934.14,252.673 3927.02,254.717C3913.99,258.458 3907.7,272.397 3894.65,276.087C3883.79,279.157 3873.7,270.671 3866.14,264.517C3851.54,252.626 3836.04,239.946 3827.66,222.526C3824.17,215.254 3830.06,207.468 3834.08,202.165C3841.84,191.92 3853.48,185.71 3862.75,177.102C3866.67,173.462 3869.56,168.524 3868.77,162.891C3868.04,157.677 3863.49,152.53 3859.63,149.433C3853.77,144.717 3847.55,140.456 3841.41,136.103C3831.1,128.792 3809.89,118.506 3817.23,102.419C3818.47,99.686 3819.95,97.006 3821.89,94.705C3826.57,89.13 3831.6,83.835 3836.96,78.908C3846.02,70.575 3858.25,62.289 3868.87,56.149C3880.46,49.45 3887.6,68.358 3899.19,65.604" style="fill:none;stroke:black;stroke-width:3.96px;"/>
            </g>
            <g transform="matrix(-1.12924,3.77712e-16,-4.07455e-16,-1.04681,8065.64,309.016)">
                <path d="M3899.19,65.604C3915.27,61.783 3916.67,38.653 3932.84,35.918C3946.09,33.677 3953.98,52.076 3963.98,57.334C3973.07,62.113 3982.01,52.086 3989.43,49.54C4014.36,40.988 4022.86,68.726 4025.96,72.65C4034.09,82.919 4021.06,94.121 4020.1,104.486C4019.73,108.503 4022.44,115.183 4022.58,119.111C4022.84,126.052 4015.77,130.051 4013.2,135.641C4009.12,144.519 4020.54,149.222 4020.79,157.405C4020.97,162.891 4019.6,168.341 4019.62,173.829C4019.64,179.438 4027.25,175.208 4029.37,175.783C4033.25,176.836 4036.75,179.046 4040.17,181.16C4054.54,190.049 4064.3,203.504 4067.85,220.056C4071.26,235.922 4049.14,244.133 4037.82,247.899C4034.23,249.092 4030.69,250.7 4026.92,251.048C4015,252.15 4009.77,239.406 3999.95,235.555C3993.37,232.973 3989.68,241.517 3983.22,240.241C3980.06,239.617 3952.4,254.776 3944.94,259.482C3937.78,264.002 3934.14,252.673 3927.02,254.717C3913.99,258.458 3907.7,272.397 3894.65,276.087C3883.79,279.157 3873.7,270.671 3866.14,264.517C3851.54,252.626 3836.04,239.946 3827.66,222.526C3824.17,215.254 3830.06,207.468 3834.08,202.165C3841.84,191.92 3853.48,185.71 3862.75,177.102C3866.67,173.462 3869.56,168.524 3868.77,162.891C3868.04,157.677 3863.49,152.53 3859.63,149.433C3853.77,144.717 3847.55,140.456 3841.41,136.103C3831.1,128.792 3809.89,118.506 3817.23,102.419C3818.47,99.686 3819.95,97.006 3821.89,94.705C3826.57,89.13 3831.6,83.835 3836.96,78.908C3846.02,70.575 3858.25,62.289 3868.87,56.149C3880.46,49.45 3887.6,68.358 3899.19,65.604" style="fill:none;stroke:black;stroke-width:3.83px;"/>
            </g>
        </g>
    </g>
</svg>
