<?xml version="1.0" encoding="UTF-8" standalone="no"?>
<!DOCTYPE svg PUBLIC "-//W3C//DTD SVG 1.1//EN" "http://www.w3.org/Graphics/SVG/1.1/DTD/svg11.dtd">
<svg width="100%" height="100%" viewBox="0 0 300 300" version="1.1" xmlns="http://www.w3.org/2000/svg" xmlns:xlink="http://www.w3.org/1999/xlink" xml:space="preserve" xmlns:serif="http://www.serif.com/" style="fill-rule:evenodd;clip-rule:evenodd;stroke-linejoin:round;stroke-miterlimit:1.41421;">
    <g id="Artboard8" transform="matrix(1,0,0,1,342,0)">
        <rect x="-342" y="0" width="300" height="300" style="fill:none;"/>
        <g transform="matrix(1,0,0,0.839007,-342,46.5484)">
            <path d="M145.485,194.618L147.968,194.622L150.445,194.629L152.914,194.639L155.372,194.652L157.817,194.667L160.246,194.685L162.655,194.706L165.044,194.729L167.408,194.756L169.745,194.785L172.053,194.817L174.329,194.851L176.57,194.889L178.772,194.929L179.86,194.95L180.936,194.972L182.001,194.994L183.056,195.018L184.099,195.042L185.131,195.066L186.15,195.092L187.157,195.118L188.151,195.144L189.133,195.172L190.101,195.2L191.055,195.229L191.995,195.258L192.921,195.289L193.832,195.32L194.728,195.351L195.609,195.383L196.474,195.417L197.324,195.45L198.157,195.485L198.973,195.52L199.773,195.556L200.555,195.593L201.32,195.63L202.068,195.668L202.797,195.707L203.507,195.746L204.199,195.787L204.873,195.828L205.527,195.87L206.161,195.912L206.776,195.956L207.371,196L207.958,196.046L208.134,196.062L208.321,196.082L208.507,196.106L208.691,196.132L208.875,196.162L209.058,196.196L209.24,196.232L209.421,196.271L209.6,196.314L209.778,196.36L209.955,196.408L210.131,196.46L210.305,196.514L210.478,196.572L210.65,196.632L210.82,196.695L210.989,196.76L211.155,196.828L211.322,196.898L211.486,196.971L211.648,197.047L211.81,197.125L211.969,197.204L212.127,197.286L212.283,197.371L212.438,197.457L212.591,197.546L212.742,197.636L212.892,197.728L213.041,197.822L213.187,197.918L213.332,198.015L213.476,198.114L213.618,198.215L213.758,198.317L213.897,198.421L214.034,198.526L214.17,198.632L214.304,198.74L214.437,198.849L214.568,198.959L214.698,199.07L214.826,199.182L214.953,199.296L215.078,199.41L215.202,199.525L215.325,199.642L215.446,199.759L215.566,199.877L215.685,199.995L215.802,200.115L215.918,200.235L216.032,200.355L216.146,200.477L216.259,200.599L216.37,200.722L216.479,200.845L216.588,200.968L216.696,201.092L216.803,201.217L216.908,201.342L217.012,201.467L217.116,201.592L217.222,201.724L217.419,201.971L217.617,202.224L217.811,202.478L218.001,202.733L218.188,202.988L218.372,203.243L218.552,203.498L218.729,203.752L218.904,204.007L219.075,204.26L219.243,204.512L219.409,204.763L219.572,205.013L219.733,205.261L219.891,205.508L220.049,205.755L220.352,206.235L220.648,206.707L221.217,207.617L221.49,208.053L221.622,208.261L221.753,208.467L221.883,208.668L222.01,208.864L222.135,209.055L222.263,209.247L224.067,211.947L225.113,213.514L226.244,215.212L227.452,217.029L228.729,218.955L229.392,219.956L230.07,220.981L230.761,222.029L231.465,223.097L232.182,224.186L232.909,225.293L233.646,226.418L234.393,227.56L235.148,228.716L235.911,229.886L236.68,231.068L237.454,232.262L238.233,233.466L239.016,234.679L239.802,235.9L240.59,237.127L241.379,238.359L242.168,239.596L242.957,240.835L243.743,242.076L244.527,243.317L245.308,244.557L246.084,245.795L246.855,247.03L247.62,248.26L248.377,249.483L248.754,250.094L249.128,250.702L249.499,251.308L249.869,251.912L250.235,252.513L250.6,253.112L250.962,253.709L251.321,254.302L251.677,254.893L252.03,255.48L252.38,256.065L252.726,256.646L253.07,257.224L253.41,257.798L253.746,258.368L254.079,258.934L254.409,259.497L254.734,260.055L255.055,260.609L255.372,261.158L255.686,261.703L255.994,262.243L256.299,262.778L256.599,263.308L256.894,263.833L257.185,264.353L257.471,264.868L257.752,265.377L258.028,265.88L258.299,266.378L258.565,266.87L258.826,267.356L259.081,267.837L259.33,268.311L259.575,268.779L259.813,269.24L260.046,269.696L260.273,270.144L260.494,270.587L260.71,271.023L260.919,271.453L261.122,271.876L261.319,272.293L261.51,272.704L261.695,273.108L261.871,273.501L261.959,273.703L262.044,273.898L262.128,274.092L262.21,274.285L262.29,274.476L262.369,274.666L262.446,274.854L262.521,275.041L262.595,275.227L262.667,275.412L262.738,275.596L262.81,275.787L262.853,275.904L262.897,276.029L262.939,276.155L262.98,276.282L263.02,276.409L263.057,276.537L263.094,276.666L263.128,276.795L263.161,276.925L263.192,277.054L263.222,277.185L263.25,277.315L263.276,277.446L263.301,277.577L263.324,277.709L263.346,277.841L263.365,277.971L263.386,278.122L263.415,278.367L263.44,278.63L263.458,278.894L263.47,279.155L263.476,279.416L263.476,279.676L263.469,279.934L263.457,280.189L263.439,280.443L263.416,280.695L263.388,280.944L263.354,281.19L263.316,281.434L263.273,281.675L263.225,281.913L263.173,282.148L263.117,282.379L263.057,282.608L262.993,282.834L262.925,283.057L262.854,283.276L262.779,283.493L262.701,283.707L262.621,283.917L262.536,284.124L262.45,284.329L262.36,284.53L262.267,284.73L262.173,284.926L262.075,285.119L261.975,285.31L261.873,285.498L261.769,285.683L261.662,285.866L261.553,286.046L261.443,286.224L261.33,286.4L261.215,286.573L261.099,286.744L260.98,286.913L260.86,287.08L260.738,287.244L260.614,287.406L260.488,287.566L260.361,287.725L260.232,287.881L260.102,288.035L259.97,288.187L259.836,288.338L259.701,288.486L259.564,288.633L259.426,288.777L259.287,288.92L259.146,289.061L259.003,289.2L258.859,289.338L258.714,289.473L258.568,289.607L258.419,289.739L258.27,289.87L258.12,289.998L257.968,290.125L257.815,290.25L257.661,290.373L257.505,290.495L257.348,290.615L257.19,290.733L257.031,290.849L256.871,290.964L256.709,291.076L256.547,291.188L256.383,291.297L256.218,291.404L256.052,291.51L255.885,291.614L255.717,291.716L255.548,291.816L255.378,291.915L255.206,292.011L255.034,292.106L254.861,292.199L254.687,292.29L254.512,292.379L254.335,292.466L254.159,292.551L253.981,292.634L253.802,292.715L253.622,292.795L253.441,292.872L253.259,292.947L253.077,293.02L252.894,293.091L252.709,293.16L252.524,293.227L252.339,293.291L252.152,293.353L251.964,293.413L251.776,293.471L251.587,293.527L251.398,293.58L251.207,293.631L251.016,293.679L250.824,293.725L250.631,293.769L250.438,293.81L250.244,293.848L250.049,293.884L249.854,293.918L249.657,293.948L249.461,293.976L249.264,294.001L249.065,294.024L248.867,294.044L248.668,294.06L248.468,294.074L248.268,294.085L248.068,294.093L247.867,294.098L247.679,294.099L38.324,294.099L38.165,294.098L37.995,294.095L37.826,294.09L37.656,294.082L37.486,294.073L37.317,294.062L37.148,294.049L36.978,294.033L36.81,294.017L36.641,293.998L36.472,293.977L36.303,293.955L36.135,293.931L35.967,293.905L35.799,293.877L35.631,293.848L35.464,293.817L35.296,293.784L35.129,293.75L34.962,293.714L34.795,293.677L34.629,293.638L34.463,293.597L34.297,293.555L34.132,293.511L33.966,293.466L33.801,293.419L33.636,293.371L33.472,293.321L33.308,293.27L33.144,293.217L32.981,293.163L32.818,293.107L32.655,293.05L32.493,292.991L32.332,292.931L32.171,292.87L32.01,292.807L31.85,292.742L31.69,292.677L31.531,292.61L31.372,292.541L31.214,292.471L31.057,292.4L30.899,292.327L30.743,292.252L30.587,292.177L30.432,292.1L30.277,292.021L30.124,291.941L29.97,291.86L29.818,291.777L29.666,291.693L29.515,291.607L29.364,291.52L29.215,291.431L29.066,291.341L28.917,291.249L28.77,291.156L28.623,291.061L28.477,290.965L28.332,290.867L28.188,290.767L28.045,290.666L27.903,290.563L27.761,290.459L27.62,290.352L27.481,290.244L27.342,290.134L27.204,290.022L27.067,289.909L26.931,289.793L26.796,289.676L26.662,289.556L26.529,289.434L26.397,289.31L26.266,289.184L26.137,289.056L26.008,288.925L25.88,288.791L25.754,288.655L25.629,288.517L25.505,288.375L25.383,288.231L25.262,288.084L25.142,287.934L25.024,287.78L24.907,287.623L24.792,287.463L24.678,287.3L24.567,287.132L24.457,286.961L24.349,286.786L24.244,286.607L24.141,286.423L24.04,286.236L23.941,286.044L23.846,285.847L23.753,285.645L23.664,285.439L23.578,285.229L23.496,285.013L23.418,284.792L23.344,284.567L23.274,284.336L23.209,284.101L23.15,283.861L23.096,283.617L23.047,283.368L23.005,283.116L22.969,282.859L22.94,282.599L22.918,282.336L22.902,282.07L22.895,281.802L22.894,281.532L22.902,281.261L22.917,280.99L22.94,280.718L22.972,280.447L23.007,280.198L23.033,280.043L23.057,279.909L23.083,279.776L23.111,279.643L23.141,279.511L23.173,279.379L23.207,279.249L23.242,279.12L23.279,278.991L23.318,278.862L23.358,278.736L23.4,278.61L23.444,278.485L23.485,278.371L23.557,278.181L23.626,278L23.697,277.817L23.77,277.633L23.844,277.447L23.92,277.26L23.998,277.071L24.079,276.876L24.24,276.496L24.409,276.103L24.585,275.704L24.767,275.298L24.955,274.884L25.149,274.463L25.35,274.035L25.557,273.6L25.769,273.158L25.988,272.708L26.212,272.251L26.443,271.787L26.678,271.316L26.92,270.838L27.167,270.353L27.419,269.861L27.677,269.363L27.94,268.858L28.209,268.347L28.482,267.83L28.76,267.306L29.043,266.776L29.331,266.241L29.623,265.699L29.92,265.152L30.222,264.6L30.528,264.042L30.838,263.479L31.152,262.911L31.47,262.338L31.793,261.76L32.119,261.177L32.449,260.591L32.782,259.999L33.119,259.404L33.459,258.805L33.803,258.201L34.149,257.594L34.499,256.984L34.852,256.37L35.208,255.753L35.566,255.133L35.927,254.51L36.292,253.883L37.025,252.625L37.768,251.356L38.519,250.08L39.277,248.797L40.041,247.51L40.811,246.218L41.585,244.923L42.362,243.627L43.142,242.332L43.923,241.037L44.705,239.745L45.488,238.457L46.269,237.174L47.048,235.898L47.824,234.629L48.597,233.37L49.365,232.121L50.128,230.884L50.884,229.66L51.633,228.45L52.373,227.257L53.105,226.08L53.827,224.921L54.537,223.783L55.236,222.665L55.922,221.57L56.595,220.498L57.253,219.451L57.896,218.43L58.522,217.438L59.131,216.474L59.722,215.54L60.295,214.637L60.847,213.767L61.888,212.133L62.839,210.645L63.688,209.321L63.816,209.121L63.942,208.923L64.069,208.721L64.197,208.516L64.464,208.085L64.737,207.641L65.018,207.183L65.307,206.713L65.603,206.236L65.756,205.99L65.911,205.744L66.068,205.496L66.227,205.246L66.389,204.995L66.554,204.743L66.721,204.489L66.891,204.235L67.064,203.98L67.239,203.724L67.418,203.468L67.6,203.212L67.785,202.956L67.974,202.7L68.166,202.445L68.362,202.19L68.561,201.936L68.76,201.689L68.868,201.558L68.972,201.432L69.077,201.307L69.184,201.182L69.291,201.058L69.4,200.934L69.509,200.811L69.62,200.688L69.732,200.565L69.845,200.444L69.96,200.323L70.075,200.202L70.192,200.082L70.31,199.963L70.43,199.845L70.551,199.728L70.673,199.611L70.796,199.496L70.921,199.381L71.047,199.267L71.175,199.154L71.303,199.043L71.434,198.932L71.566,198.823L71.699,198.715L71.834,198.608L71.97,198.503L72.108,198.398L72.247,198.295L72.388,198.194L72.53,198.095L72.674,197.996L72.819,197.9L72.966,197.805L73.115,197.711L73.265,197.62L73.417,197.531L73.57,197.443L73.725,197.358L73.881,197.274L74.039,197.193L74.199,197.114L74.36,197.037L74.522,196.962L74.687,196.89L74.852,196.82L75.019,196.753L75.187,196.688L75.357,196.626L75.529,196.567L75.701,196.51L75.875,196.456L76.05,196.405L76.227,196.357L76.405,196.312L76.584,196.27L76.764,196.23L76.945,196.195L77.127,196.162L77.311,196.132L77.496,196.105L77.681,196.082L77.867,196.062L78.042,196.046L78.629,196L79.224,195.956L79.839,195.912L80.473,195.87L81.127,195.828L81.801,195.787L82.493,195.746L83.203,195.707L83.932,195.668L84.68,195.63L85.445,195.593L86.227,195.556L87.027,195.52L87.843,195.485L88.676,195.45L89.526,195.417L90.391,195.383L91.272,195.351L92.168,195.32L93.079,195.289L94.005,195.258L94.945,195.229L95.899,195.2L96.867,195.172L97.849,195.144L98.843,195.118L99.85,195.092L100.869,195.066L101.901,195.042L102.944,195.018L103.999,194.994L105.064,194.972L106.14,194.95L107.228,194.929L109.43,194.889L111.671,194.851L113.947,194.817L116.255,194.785L118.592,194.756L120.956,194.729L123.345,194.706L125.754,194.685L128.183,194.667L130.628,194.652L133.086,194.639L135.555,194.629L138.032,194.622L140.515,194.618L143,194.617L145.485,194.618ZM140.519,199.584L138.04,199.589L135.567,199.596L133.102,199.605L130.648,199.618L128.207,199.633L125.783,199.651L123.377,199.672L120.993,199.695L118.633,199.721L116.3,199.751L113.997,199.782L111.727,199.817L109.491,199.854L107.294,199.894L106.21,199.916L105.137,199.937L104.074,199.96L103.023,199.983L101.983,200.007L100.955,200.031L99.939,200.057L98.935,200.083L97.945,200.109L96.967,200.137L96.003,200.165L95.053,200.193L94.117,200.223L93.196,200.253L92.289,200.284L91.398,200.315L90.522,200.347L89.662,200.38L88.818,200.414L87.991,200.448L87.18,200.483L86.387,200.518L85.612,200.555L84.854,200.592L84.114,200.63L83.393,200.668L82.691,200.707L82.009,200.747L81.346,200.787L80.702,200.828L80.079,200.87L79.477,200.913L78.895,200.956L78.335,201L78.211,201.011L78.087,201.024L77.964,201.04L77.842,201.058L77.721,201.077L77.601,201.099L77.481,201.123L77.362,201.149L77.244,201.177L77.126,201.206L77.01,201.238L76.894,201.272L76.779,201.308L76.664,201.345L76.55,201.385L76.437,201.426L76.325,201.469L76.214,201.514L76.103,201.561L75.993,201.609L75.883,201.659L75.774,201.711L75.666,201.765L75.559,201.82L75.452,201.877L75.346,201.936L75.241,201.996L75.136,202.058L75.032,202.121L74.928,202.186L74.826,202.252L74.723,202.32L74.622,202.389L74.521,202.46L74.421,202.532L74.321,202.606L74.222,202.681L74.123,202.757L74.025,202.835L73.928,202.914L73.831,202.994L73.735,203.076L73.64,203.158L73.545,203.242L73.45,203.328L73.356,203.414L73.263,203.501L73.17,203.59L73.078,203.68L72.986,203.771L72.895,203.862L72.804,203.955L72.714,204.049L72.624,204.144L72.535,204.24L72.446,204.337L72.358,204.435L72.27,204.533L72.183,204.633L72.096,204.733L72.01,204.835L71.924,204.937L71.839,205.039L71.754,205.143L71.585,205.352L71.419,205.565L71.254,205.78L71.09,205.997L70.928,206.216L70.768,206.438L70.609,206.661L70.452,206.887L70.296,207.113L70.142,207.341L69.989,207.571L69.837,207.801L69.686,208.032L69.537,208.264L69.388,208.496L69.241,208.728L69.095,208.961L68.95,209.193L68.663,209.657L68.379,210.118L68.098,210.575L67.82,211.027L67.545,211.472L67.408,211.691L67.272,211.908L67.136,212.123L67,212.335L66.151,213.658L65.205,215.139L64.168,216.767L63.618,217.633L63.048,218.532L62.459,219.463L61.851,220.424L61.227,221.413L60.586,222.431L59.931,223.474L59.26,224.542L58.576,225.634L57.879,226.749L57.171,227.884L56.452,229.038L55.722,230.211L54.984,231.401L54.238,232.607L53.484,233.827L52.724,235.059L51.959,236.304L51.189,237.559L50.415,238.822L49.639,240.094L48.861,241.371L48.082,242.654L47.304,243.94L46.526,245.229L45.75,246.519L44.976,247.808L44.206,249.096L43.441,250.381L42.681,251.661L41.928,252.936L41.182,254.204L40.444,255.463L39.715,256.713L39.354,257.334L38.996,257.953L38.641,258.568L38.288,259.179L37.938,259.788L37.592,260.393L37.248,260.994L36.908,261.591L36.571,262.184L36.238,262.773L35.909,263.357L35.583,263.937L35.261,264.513L34.943,265.083L34.629,265.648L34.319,266.208L34.013,266.763L33.712,267.312L33.416,267.855L33.124,268.393L32.837,268.924L32.555,269.45L32.277,269.969L32.005,270.481L31.738,270.986L31.476,271.485L31.22,271.977L30.97,272.461L30.725,272.938L30.485,273.408L30.252,273.87L30.025,274.324L29.803,274.769L29.588,275.207L29.38,275.636L29.178,276.057L28.982,276.469L28.793,276.872L28.611,277.267L28.436,277.651L28.267,278.027L28.106,278.393L27.952,278.749L27.806,279.096L27.736,279.265L27.667,279.432L27.6,279.597L27.536,279.758L27.473,279.918L27.412,280.074L27.353,280.228L27.296,280.38L27.277,280.431L27.259,280.483L27.242,280.534L27.225,280.586L27.21,280.637L27.195,280.689L27.181,280.74L27.168,280.792L27.155,280.843L27.144,280.895L27.133,280.946L27.123,280.998L27.114,281.049L27.105,281.1L27.09,281.203L27.079,281.305L27.07,281.408L27.064,281.51L27.061,281.612L27.061,281.714L27.064,281.816L27.07,281.918L27.079,282.019L27.09,282.12L27.104,282.221L27.121,282.322L27.14,282.422L27.163,282.522L27.187,282.622L27.215,282.722L27.245,282.821L27.277,282.92L27.312,283.019L27.35,283.117L27.39,283.215L27.432,283.313L27.477,283.41L27.524,283.507L27.573,283.603L27.625,283.699L27.679,283.795L27.735,283.89L27.793,283.985L27.853,284.079L27.916,284.173L27.981,284.266L28.047,284.359L28.116,284.452L28.187,284.543L28.26,284.635L28.334,284.725L28.411,284.816L28.489,284.905L28.57,284.994L28.652,285.083L28.736,285.17L28.821,285.258L28.909,285.344L28.998,285.43L29.088,285.515L29.181,285.6L29.275,285.684L29.37,285.767L29.467,285.849L29.566,285.931L29.666,286.012L29.767,286.093L29.87,286.172L29.974,286.251L30.08,286.329L30.187,286.406L30.295,286.482L30.404,286.558L30.515,286.633L30.627,286.707L30.74,286.78L30.854,286.852L30.969,286.923L31.085,286.994L31.203,287.063L31.321,287.132L31.44,287.199L31.561,287.266L31.682,287.332L31.804,287.397L31.927,287.46L32.05,287.523L32.175,287.585L32.3,287.646L32.426,287.706L32.553,287.764L32.68,287.822L32.808,287.879L32.936,287.934L33.065,287.989L33.195,288.042L33.325,288.094L33.456,288.146L33.587,288.196L33.718,288.244L33.85,288.292L33.982,288.338L34.115,288.384L34.248,288.428L34.381,288.471L34.514,288.512L34.647,288.553L34.781,288.592L34.915,288.63L35.048,288.667L35.182,288.702L35.316,288.736L35.45,288.769L35.584,288.8L35.718,288.83L35.852,288.859L35.985,288.886L36.119,288.912L36.252,288.937L36.385,288.96L36.518,288.982L36.651,289.003L36.783,289.022L36.915,289.039L37.047,289.055L37.178,289.07L37.309,289.083L37.439,289.094L37.569,289.105L37.698,289.113L37.827,289.12L37.955,289.126L38.082,289.13L38.209,289.132L38.335,289.133L247.665,289.133L247.812,289.132L247.959,289.128L248.106,289.122L248.253,289.114L248.401,289.104L248.548,289.092L248.696,289.077L248.844,289.06L248.991,289.042L249.139,289.021L249.287,288.997L249.435,288.972L249.582,288.945L249.73,288.916L249.877,288.884L250.025,288.851L250.172,288.816L250.319,288.779L250.465,288.739L250.612,288.698L250.758,288.656L250.904,288.611L251.049,288.564L251.194,288.516L251.339,288.465L251.483,288.414L251.627,288.36L251.77,288.304L251.913,288.247L252.055,288.188L252.197,288.128L252.338,288.066L252.478,288.002L252.618,287.937L252.758,287.87L252.896,287.801L253.034,287.731L253.171,287.66L253.307,287.587L253.442,287.512L253.577,287.436L253.711,287.359L253.843,287.28L253.975,287.2L254.106,287.119L254.236,287.036L254.365,286.952L254.493,286.866L254.62,286.78L254.746,286.692L254.871,286.603L254.994,286.512L255.117,286.421L255.238,286.328L255.358,286.234L255.477,286.139L255.594,286.043L255.711,285.946L255.825,285.848L255.939,285.749L256.051,285.649L256.162,285.548L256.271,285.446L256.379,285.342L256.486,285.239L256.59,285.134L256.694,285.028L256.795,284.921L256.896,284.814L256.994,284.706L257.091,284.597L257.186,284.487L257.28,284.377L257.371,284.265L257.461,284.153L257.55,284.041L257.636,283.928L257.721,283.814L257.803,283.699L257.884,283.584L257.963,283.468L258.04,283.352L258.115,283.236L258.188,283.118L258.259,283.001L258.328,282.882L258.394,282.764L258.459,282.645L258.522,282.526L258.582,282.406L258.64,282.286L258.696,282.165L258.75,282.044L258.801,281.923L258.85,281.802L258.897,281.681L258.941,281.559L258.983,281.437L259.023,281.315L259.06,281.193L259.095,281.07L259.127,280.948L259.157,280.825L259.184,280.703L259.208,280.58L259.23,280.457L259.25,280.335L259.266,280.212L259.28,280.089L259.292,279.967L259.3,279.844L259.306,279.722L259.309,279.6L259.309,279.478L259.306,279.356L259.301,279.234L259.292,279.113L259.281,278.992L259.267,278.871L259.258,278.81L259.249,278.75L259.24,278.69L259.229,278.63L259.218,278.57L259.206,278.51L259.193,278.45L259.179,278.39L259.165,278.33L259.15,278.271L259.134,278.211L259.117,278.152L259.099,278.092L259.081,278.033L259.062,277.974L259.042,277.915L259.021,277.856L259,277.798L258.943,277.646L258.884,277.493L258.823,277.337L258.76,277.178L258.695,277.017L258.629,276.854L258.56,276.688L258.489,276.52L258.417,276.35L258.342,276.177L258.266,276.002L258.188,275.825L258.026,275.464L257.857,275.094L257.682,274.715L257.499,274.328L257.309,273.932L257.112,273.529L256.909,273.117L256.699,272.697L256.483,272.27L256.261,271.835L256.032,271.392L255.797,270.943L255.556,270.486L255.31,270.022L255.058,269.551L254.8,269.074L254.536,268.59L254.268,268.1L253.994,267.604L253.715,267.102L253.43,266.593L253.141,266.079L252.847,265.56L252.549,265.035L252.245,264.505L251.938,263.969L251.626,263.429L251.309,262.884L250.989,262.334L250.664,261.78L250.336,261.221L250.004,260.658L249.668,260.092L249.329,259.521L248.986,258.947L248.64,258.369L248.291,257.787L247.938,257.203L247.583,256.615L247.225,256.024L246.864,255.431L246.5,254.835L246.134,254.236L245.766,253.636L245.395,253.033L245.022,252.428L244.269,251.212L243.51,249.99L242.744,248.764L241.973,247.533L241.197,246.3L240.417,245.066L239.634,243.832L238.85,242.599L238.065,241.369L237.28,240.142L236.495,238.921L235.713,237.705L234.933,236.497L234.156,235.298L233.385,234.108L232.619,232.93L231.859,231.764L231.106,230.612L230.362,229.474L229.627,228.353L228.902,227.249L228.188,226.164L227.485,225.098L226.796,224.053L226.12,223.031L225.459,222.033L224.184,220.111L222.979,218.298L221.851,216.604L220.807,215.039L219,212.335L218.861,212.125L218.721,211.913L218.582,211.698L218.442,211.48L218.302,211.261L218.161,211.039L217.879,210.59L217.308,209.676L217.018,209.214L216.725,208.75L216.577,208.518L216.429,208.286L216.279,208.055L216.128,207.824L215.976,207.594L215.823,207.365L215.669,207.136L215.513,206.91L215.356,206.684L215.198,206.46L215.038,206.238L214.877,206.019L214.714,205.801L214.55,205.585L214.384,205.373L214.216,205.163L214.132,205.059L214.047,204.956L213.962,204.853L213.876,204.752L213.79,204.651L213.703,204.551L213.616,204.452L213.528,204.354L213.44,204.257L213.351,204.16L213.262,204.065L213.173,203.971L213.082,203.877L212.992,203.785L212.901,203.694L212.809,203.604L212.717,203.515L212.624,203.427L212.531,203.34L212.437,203.255L212.342,203.17L212.248,203.087L212.152,203.005L212.056,202.924L211.959,202.845L211.862,202.767L211.764,202.69L211.665,202.615L211.566,202.541L211.467,202.468L211.366,202.397L211.265,202.327L211.164,202.259L211.062,202.193L210.959,202.127L210.855,202.064L210.751,202.001L210.646,201.941L210.54,201.882L210.434,201.825L210.327,201.769L210.22,201.715L210.111,201.663L210.002,201.612L209.893,201.564L209.782,201.517L209.671,201.471L209.559,201.428L209.447,201.387L209.333,201.347L209.219,201.309L209.104,201.273L208.989,201.239L208.872,201.207L208.755,201.177L208.637,201.149L208.519,201.123L208.399,201.099L208.279,201.077L208.158,201.058L208.036,201.04L207.913,201.025L207.789,201.011L207.665,201L207.105,200.956L206.523,200.913L205.921,200.87L205.298,200.828L204.654,200.787L203.991,200.747L203.309,200.707L202.607,200.668L201.886,200.63L201.146,200.592L200.388,200.555L199.613,200.518L198.82,200.483L198.009,200.448L197.182,200.414L196.338,200.38L195.478,200.347L194.602,200.315L193.711,200.284L192.804,200.253L191.883,200.223L190.947,200.193L189.997,200.165L189.033,200.137L188.055,200.109L187.065,200.083L186.061,200.057L185.045,200.031L184.017,200.007L182.977,199.983L181.926,199.96L180.863,199.937L179.79,199.916L178.706,199.894L176.509,199.854L174.273,199.817L172.003,199.782L169.7,199.751L167.367,199.721L165.007,199.695L162.623,199.672L160.217,199.651L157.793,199.633L155.352,199.618L152.898,199.605L150.433,199.596L147.96,199.589L145.481,199.584L143,199.583L140.519,199.584Z"/>
        </g>
        <g transform="matrix(1,0,0,1,-342,-5)">
            <path d="M184.934,13.867L185.11,13.873L185.285,13.884L185.46,13.9L185.633,13.92L185.805,13.944L185.977,13.972L186.147,14.005L186.315,14.042L186.482,14.082L186.648,14.127L186.812,14.176L186.974,14.229L187.134,14.285L187.292,14.346L187.449,14.41L187.603,14.477L187.756,14.549L187.906,14.623L188.054,14.701L188.2,14.783L188.344,14.868L188.485,14.956L188.624,15.048L188.76,15.142L188.894,15.24L189.026,15.341L189.154,15.444L189.28,15.551L189.404,15.661L189.525,15.773L189.643,15.889L189.758,16.007L189.871,16.127L189.98,16.251L190.087,16.377L190.191,16.506L190.292,16.637L190.389,16.771L190.484,16.908L190.575,17.046L190.663,17.187L190.749,17.331L190.83,17.477L190.908,17.625L190.983,17.776L191.054,17.928L191.122,18.082L191.186,18.239L191.246,18.397L191.303,18.558L191.355,18.72L191.404,18.884L191.449,19.049L191.49,19.216L191.526,19.385L191.559,19.555L191.587,19.726L191.602,19.833L219.345,19.833L219.49,19.834L219.648,19.837L219.806,19.842L219.963,19.849L220.12,19.858L220.276,19.869L220.432,19.882L220.588,19.897L220.743,19.914L220.897,19.932L221.051,19.953L221.205,19.975L221.358,20L221.51,20.026L221.662,20.054L221.813,20.084L221.964,20.116L222.113,20.15L222.263,20.185L222.411,20.222L222.559,20.261L222.706,20.302L222.852,20.345L222.998,20.389L223.143,20.435L223.287,20.483L223.43,20.532L223.573,20.584L223.714,20.637L223.855,20.691L223.995,20.747L224.134,20.805L224.272,20.865L224.409,20.926L224.546,20.989L224.681,21.053L224.816,21.119L224.949,21.186L225.082,21.255L225.214,21.326L225.344,21.398L225.474,21.471L225.603,21.546L225.73,21.623L225.857,21.701L225.982,21.78L226.107,21.861L226.23,21.944L226.353,22.027L226.474,22.113L226.594,22.199L226.713,22.287L226.832,22.377L226.948,22.467L227.064,22.559L227.179,22.653L227.292,22.748L227.404,22.844L227.515,22.941L227.625,23.04L227.734,23.14L227.841,23.241L227.948,23.344L228.053,23.447L228.156,23.552L228.259,23.659L228.36,23.766L228.46,23.875L228.559,23.985L228.656,24.096L228.753,24.208L228.847,24.322L228.941,24.436L229.033,24.552L229.123,24.669L229.213,24.787L229.301,24.906L229.387,25.026L229.473,25.147L229.557,25.27L229.639,25.393L229.72,25.518L229.799,25.643L229.877,25.77L229.954,25.898L230.029,26.026L230.102,26.156L230.174,26.287L230.245,26.418L230.314,26.551L230.381,26.684L230.447,26.819L230.512,26.954L230.574,27.091L230.635,27.228L230.695,27.366L230.753,27.505L230.809,27.645L230.864,27.786L230.916,27.928L230.968,28.07L231.017,28.213L231.065,28.357L231.111,28.502L231.155,28.648L231.198,28.794L231.239,28.941L231.278,29.089L231.315,29.237L231.35,29.386L231.384,29.536L231.416,29.687L231.446,29.838L231.474,29.99L231.5,30.142L231.525,30.295L231.547,30.449L231.568,30.603L231.586,30.757L231.603,30.912L231.618,31.068L231.631,31.224L231.642,31.38L231.651,31.537L231.658,31.694L231.663,31.852L231.666,32.01L231.667,32.155L231.667,41.845L231.666,41.99L231.663,42.149L231.657,42.308L231.649,42.468L231.638,42.629L231.624,42.793L231.607,42.958L231.585,43.127L231.559,43.3L231.528,43.477L231.491,43.659L231.446,43.847L231.394,44.042L231.332,44.243L231.259,44.452L231.173,44.669L231.072,44.893L230.954,45.125L230.817,45.363L230.658,45.606L230.475,45.851L230.268,46.094L230.034,46.333L229.776,46.561L229.494,46.775L229.192,46.97L228.876,47.141L228.549,47.286L228.218,47.403L227.89,47.493L227.568,47.557L227.258,47.597L226.961,47.616L226.68,47.617L226.416,47.604L226.169,47.578L225.939,47.543L225.724,47.501L225.524,47.454L225.337,47.402L225.163,47.348L225,47.291L224.846,47.233L224.702,47.175L224.566,47.116L224.437,47.056L224.314,46.997L224.196,46.938L224.084,46.879L223.976,46.82L223.872,46.762L223.763,46.698L223.582,46.59L223.4,46.476L223.226,46.364L223.059,46.253L222.897,46.144L222.737,46.033L222.437,45.825L222.142,45.618L221.85,45.415L221.712,45.32L221.573,45.226L221.436,45.135L221.301,45.047L221.168,44.962L221.037,44.88L220.903,44.798L220.846,44.764L220.783,44.728L220.721,44.692L220.66,44.658L220.6,44.625L220.541,44.592L220.483,44.562L220.425,44.532L220.369,44.503L220.313,44.476L220.259,44.45L220.206,44.425L220.154,44.401L220.103,44.379L220.053,44.357L220.005,44.338L219.958,44.319L219.912,44.302L219.868,44.285L219.826,44.27L219.784,44.257L219.745,44.244L219.707,44.233L219.671,44.222L219.636,44.213L219.603,44.205L219.571,44.198L219.542,44.191L219.514,44.186L219.487,44.181L219.463,44.177L219.44,44.174L219.418,44.172L219.398,44.17L219.379,44.169L219.362,44.168L219.346,44.167L219.309,44.167L66.691,44.167L66.654,44.167L66.638,44.168L66.621,44.169L66.602,44.17L66.582,44.172L66.56,44.174L66.537,44.177L66.513,44.181L66.486,44.186L66.458,44.191L66.429,44.198L66.397,44.205L66.364,44.213L66.329,44.222L66.293,44.233L66.255,44.244L66.216,44.257L66.174,44.27L66.132,44.285L66.088,44.302L66.042,44.319L65.995,44.338L65.947,44.357L65.897,44.379L65.846,44.401L65.794,44.425L65.741,44.45L65.687,44.476L65.631,44.503L65.575,44.532L65.517,44.561L65.459,44.592L65.4,44.625L65.34,44.658L65.279,44.692L65.217,44.728L65.154,44.764L65.097,44.798L64.963,44.88L64.832,44.962L64.699,45.047L64.564,45.135L64.427,45.226L64.288,45.32L64.15,45.415L63.858,45.618L63.563,45.825L63.263,46.034L63.103,46.144L62.941,46.253L62.774,46.364L62.6,46.476L62.418,46.59L62.237,46.698L62.128,46.762L62.024,46.82L61.916,46.879L61.804,46.938L61.686,46.997L61.563,47.056L61.434,47.116L61.298,47.175L61.154,47.233L61,47.291L60.837,47.348L60.663,47.402L60.476,47.454L60.276,47.501L60.061,47.543L59.831,47.578L59.584,47.604L59.32,47.617L59.039,47.616L58.742,47.597L58.432,47.557L58.11,47.493L57.782,47.403L57.451,47.286L57.124,47.141L56.807,46.969L56.506,46.775L56.224,46.561L55.966,46.333L55.732,46.094L55.525,45.851L55.342,45.606L55.183,45.363L55.046,45.125L54.928,44.893L54.827,44.669L54.741,44.452L54.668,44.243L54.606,44.042L54.554,43.847L54.509,43.659L54.472,43.477L54.441,43.3L54.415,43.127L54.393,42.958L54.376,42.792L54.362,42.629L54.351,42.468L54.343,42.308L54.337,42.149L54.334,41.99L54.333,41.845L54.333,32.155L54.334,32.01L54.337,31.852L54.342,31.694L54.349,31.537L54.358,31.38L54.369,31.224L54.382,31.068L54.397,30.912L54.414,30.757L54.432,30.603L54.453,30.449L54.475,30.295L54.5,30.142L54.526,29.99L54.554,29.838L54.584,29.687L54.616,29.536L54.65,29.387L54.685,29.237L54.722,29.089L54.761,28.941L54.802,28.794L54.845,28.648L54.889,28.502L54.935,28.357L54.983,28.213L55.032,28.07L55.084,27.928L55.137,27.786L55.191,27.645L55.247,27.505L55.305,27.366L55.365,27.228L55.426,27.091L55.488,26.954L55.553,26.819L55.619,26.684L55.686,26.551L55.755,26.418L55.826,26.286L55.898,26.156L55.971,26.026L56.046,25.898L56.123,25.77L56.201,25.643L56.28,25.518L56.361,25.393L56.444,25.27L56.527,25.147L56.613,25.026L56.699,24.906L56.787,24.787L56.877,24.669L56.967,24.552L57.059,24.436L57.153,24.321L57.248,24.208L57.344,24.096L57.441,23.985L57.54,23.875L57.64,23.766L57.741,23.659L57.844,23.552L57.947,23.447L58.052,23.344L58.159,23.241L58.266,23.14L58.375,23.04L58.485,22.941L58.596,22.844L58.708,22.748L58.821,22.653L58.936,22.559L59.052,22.467L59.169,22.377L59.287,22.287L59.406,22.199L59.526,22.113L59.647,22.027L59.77,21.944L59.893,21.861L60.018,21.78L60.143,21.701L60.27,21.623L60.397,21.546L60.526,21.471L60.656,21.398L60.786,21.326L60.918,21.255L61.051,21.186L61.184,21.119L61.319,21.053L61.454,20.989L61.591,20.926L61.728,20.865L61.866,20.805L62.005,20.747L62.145,20.691L62.286,20.637L62.427,20.584L62.57,20.532L62.713,20.483L62.857,20.435L63.002,20.389L63.148,20.345L63.294,20.302L63.441,20.261L63.589,20.222L63.737,20.185L63.887,20.15L64.036,20.116L64.187,20.084L64.338,20.054L64.49,20.026L64.642,20L64.795,19.975L64.949,19.953L65.103,19.932L65.257,19.914L65.412,19.897L65.568,19.882L65.724,19.869L65.88,19.858L66.037,19.849L66.194,19.842L66.352,19.837L66.51,19.834L66.655,19.833L94.398,19.833L94.413,19.726L94.441,19.555L94.473,19.385L94.51,19.216L94.551,19.049L94.596,18.884L94.645,18.72L94.697,18.558L94.754,18.397L94.814,18.239L94.878,18.082L94.946,17.928L95.017,17.775L95.092,17.625L95.17,17.477L95.252,17.331L95.337,17.188L95.425,17.046L95.516,16.908L95.611,16.771L95.708,16.637L95.809,16.506L95.913,16.377L96.02,16.251L96.129,16.127L96.242,16.007L96.357,15.888L96.475,15.773L96.596,15.661L96.72,15.551L96.846,15.444L96.975,15.34L97.106,15.24L97.24,15.142L97.376,15.047L97.515,14.956L97.656,14.868L97.8,14.783L97.946,14.701L98.094,14.623L98.244,14.548L98.396,14.477L98.551,14.41L98.708,14.346L98.866,14.285L99.026,14.229L99.188,14.176L99.352,14.127L99.518,14.082L99.685,14.042L99.854,14.005L100.023,13.972L100.195,13.944L100.367,13.92L100.54,13.9L100.715,13.884L100.89,13.873L101.066,13.867L101.216,13.865L184.784,13.865L184.934,13.867ZM101.242,18.031L101.171,18.032L101.101,18.035L101.031,18.039L100.962,18.045L100.893,18.053L100.825,18.063L100.757,18.074L100.69,18.087L100.623,18.102L100.557,18.118L100.492,18.135L100.427,18.155L100.363,18.176L100.3,18.198L100.237,18.222L100.175,18.247L100.114,18.274L100.054,18.302L99.994,18.332L99.936,18.363L99.878,18.395L99.821,18.429L99.765,18.464L99.709,18.5L99.655,18.538L99.602,18.576L99.55,18.617L99.498,18.658L99.448,18.7L99.399,18.744L99.351,18.789L99.304,18.835L99.258,18.882L99.213,18.93L99.169,18.979L99.126,19.03L99.085,19.081L99.045,19.133L99.006,19.187L98.969,19.241L98.932,19.296L98.897,19.352L98.864,19.409L98.831,19.467L98.8,19.526L98.771,19.585L98.742,19.645L98.716,19.707L98.69,19.768L98.667,19.831L98.644,19.894L98.623,19.958L98.604,20.023L98.586,20.089L98.57,20.155L98.556,20.221L98.543,20.288L98.532,20.356L98.522,20.424L98.514,20.493L98.508,20.563L98.504,20.632L98.501,20.703L98.5,20.773L98.5,24L66.669,24L66.563,24.001L66.458,24.003L66.353,24.006L66.248,24.011L66.144,24.017L66.04,24.024L65.937,24.032L65.834,24.042L65.731,24.053L65.629,24.066L65.527,24.079L65.425,24.094L65.324,24.11L65.223,24.128L65.123,24.146L65.023,24.166L64.924,24.187L64.825,24.209L64.726,24.233L64.628,24.257L64.53,24.283L64.433,24.31L64.337,24.338L64.241,24.368L64.145,24.398L64.05,24.43L63.955,24.462L63.861,24.496L63.768,24.531L63.675,24.567L63.582,24.604L63.49,24.642L63.399,24.682L63.308,24.722L63.218,24.764L63.128,24.806L63.039,24.85L62.951,24.894L62.863,24.94L62.776,24.987L62.69,25.034L62.604,25.083L62.519,25.133L62.434,25.183L62.35,25.235L62.267,25.288L62.185,25.341L62.103,25.396L62.022,25.451L61.941,25.508L61.861,25.565L61.782,25.624L61.704,25.683L61.627,25.743L61.55,25.804L61.474,25.866L61.399,25.929L61.324,25.993L61.25,26.058L61.177,26.123L61.105,26.189L61.034,26.257L60.963,26.325L60.894,26.394L60.825,26.463L60.757,26.534L60.689,26.605L60.623,26.677L60.558,26.75L60.493,26.824L60.429,26.899L60.366,26.974L60.304,27.05L60.243,27.127L60.183,27.204L60.124,27.282L60.065,27.361L60.008,27.441L59.951,27.522L59.896,27.603L59.841,27.685L59.788,27.767L59.735,27.85L59.683,27.934L59.633,28.019L59.583,28.104L59.534,28.19L59.486,28.276L59.44,28.363L59.394,28.451L59.35,28.539L59.306,28.628L59.263,28.718L59.222,28.808L59.182,28.899L59.142,28.99L59.104,29.082L59.067,29.175L59.031,29.268L58.996,29.361L58.962,29.455L58.929,29.55L58.898,29.645L58.867,29.741L58.838,29.837L58.81,29.933L58.783,30.03L58.757,30.128L58.733,30.226L58.709,30.325L58.687,30.424L58.666,30.523L58.646,30.623L58.628,30.723L58.61,30.824L58.594,30.925L58.579,31.027L58.566,31.129L58.553,31.231L58.542,31.334L58.532,31.437L58.524,31.54L58.517,31.644L58.511,31.748L58.506,31.853L58.503,31.958L58.501,32.063L58.5,32.169L58.5,41.831L58.501,41.935L58.503,42.035L58.506,42.131L58.511,42.223L58.517,42.311L58.524,42.396L58.532,42.477L58.542,42.554L58.553,42.628L58.566,42.698L58.579,42.764L58.594,42.828L58.61,42.887L58.628,42.944L58.646,42.997L58.666,43.047L58.687,43.094L58.709,43.138L58.733,43.178L58.757,43.216L58.783,43.25L58.81,43.282L58.838,43.311L58.867,43.337L58.898,43.36L58.929,43.38L58.962,43.398L58.996,43.413L59.031,43.425L59.067,43.435L59.104,43.442L59.142,43.447L59.182,43.45L59.222,43.45L59.264,43.448L59.306,43.443L59.35,43.437L59.394,43.428L59.44,43.417L59.487,43.404L59.534,43.39L59.583,43.373L59.633,43.354L59.683,43.333L59.735,43.311L59.788,43.287L59.841,43.261L59.896,43.233L59.951,43.204L60.008,43.173L60.065,43.141L60.124,43.107L60.243,43.036L60.366,42.959L60.493,42.877L60.623,42.791L60.757,42.7L60.894,42.606L61.177,42.409L61.474,42.201L61.782,41.987L61.941,41.878L62.103,41.768L62.267,41.659L62.434,41.549L62.604,41.441L62.776,41.333L62.951,41.227L63.039,41.174L63.128,41.122L63.218,41.071L63.308,41.02L63.399,40.97L63.49,40.92L63.582,40.871L63.675,40.823L63.768,40.776L63.861,40.73L63.955,40.685L64.05,40.641L64.145,40.597L64.241,40.555L64.337,40.514L64.433,40.475L64.53,40.436L64.628,40.399L64.726,40.363L64.825,40.328L64.924,40.295L65.023,40.264L65.123,40.234L65.223,40.205L65.324,40.178L65.425,40.153L65.527,40.13L65.629,40.108L65.731,40.088L65.834,40.07L65.937,40.054L66.04,40.04L66.144,40.028L66.248,40.018L66.353,40.01L66.458,40.005L66.563,40.001L66.669,40L219.331,40L219.437,40.001L219.542,40.005L219.647,40.01L219.752,40.018L219.856,40.028L219.96,40.04L220.063,40.054L220.166,40.07L220.269,40.088L220.371,40.108L220.473,40.13L220.575,40.153L220.676,40.178L220.777,40.205L220.877,40.234L220.977,40.264L221.076,40.295L221.175,40.328L221.274,40.363L221.372,40.399L221.47,40.436L221.567,40.475L221.663,40.514L221.759,40.555L221.855,40.597L221.95,40.641L222.045,40.685L222.139,40.73L222.232,40.776L222.325,40.823L222.418,40.871L222.51,40.92L222.601,40.97L222.692,41.02L222.782,41.071L222.872,41.122L222.961,41.174L223.049,41.227L223.224,41.333L223.396,41.441L223.566,41.549L223.733,41.659L223.897,41.768L224.059,41.878L224.218,41.987L224.526,42.201L224.823,42.409L225.106,42.606L225.243,42.7L225.377,42.791L225.507,42.877L225.634,42.959L225.757,43.036L225.876,43.107L225.935,43.141L225.992,43.173L226.049,43.204L226.104,43.233L226.159,43.261L226.212,43.287L226.265,43.311L226.317,43.333L226.367,43.354L226.417,43.373L226.466,43.39L226.513,43.404L226.56,43.417L226.606,43.428L226.65,43.437L226.694,43.443L226.736,43.448L226.778,43.45L226.818,43.45L226.858,43.447L226.896,43.442L226.933,43.435L226.969,43.425L227.004,43.413L227.038,43.398L227.071,43.38L227.102,43.36L227.133,43.337L227.162,43.311L227.19,43.282L227.217,43.25L227.243,43.216L227.267,43.178L227.291,43.138L227.313,43.094L227.334,43.047L227.354,42.997L227.372,42.944L227.39,42.887L227.406,42.828L227.421,42.764L227.434,42.698L227.447,42.628L227.458,42.554L227.468,42.477L227.476,42.396L227.483,42.311L227.489,42.223L227.494,42.131L227.497,42.035L227.499,41.935L227.5,41.831L227.5,32.169L227.499,32.063L227.497,31.958L227.494,31.853L227.489,31.748L227.483,31.644L227.476,31.54L227.468,31.437L227.458,31.334L227.447,31.231L227.434,31.129L227.421,31.027L227.406,30.925L227.39,30.824L227.372,30.723L227.354,30.623L227.334,30.523L227.313,30.424L227.291,30.325L227.267,30.226L227.243,30.128L227.217,30.03L227.19,29.933L227.162,29.837L227.133,29.741L227.102,29.645L227.071,29.55L227.038,29.455L227.004,29.361L226.969,29.268L226.933,29.175L226.896,29.082L226.858,28.99L226.818,28.899L226.778,28.808L226.737,28.718L226.694,28.628L226.65,28.539L226.606,28.451L226.56,28.363L226.514,28.276L226.466,28.19L226.417,28.104L226.367,28.019L226.317,27.934L226.265,27.85L226.212,27.767L226.159,27.685L226.104,27.603L226.049,27.522L225.992,27.441L225.935,27.361L225.876,27.282L225.817,27.204L225.757,27.127L225.696,27.05L225.634,26.974L225.571,26.899L225.507,26.824L225.442,26.75L225.377,26.677L225.311,26.605L225.243,26.534L225.175,26.463L225.106,26.394L225.037,26.325L224.966,26.257L224.895,26.189L224.823,26.123L224.75,26.058L224.676,25.993L224.601,25.929L224.526,25.866L224.45,25.804L224.373,25.743L224.296,25.683L224.218,25.624L224.139,25.565L224.059,25.508L223.978,25.451L223.897,25.396L223.815,25.341L223.733,25.288L223.65,25.235L223.566,25.183L223.481,25.133L223.396,25.083L223.31,25.034L223.224,24.987L223.137,24.94L223.049,24.894L222.961,24.85L222.872,24.806L222.782,24.764L222.692,24.722L222.601,24.682L222.51,24.642L222.418,24.604L222.325,24.567L222.232,24.531L222.139,24.496L222.045,24.462L221.95,24.43L221.855,24.398L221.759,24.368L221.663,24.338L221.567,24.31L221.47,24.283L221.372,24.257L221.274,24.233L221.175,24.209L221.076,24.187L220.977,24.166L220.877,24.146L220.777,24.128L220.676,24.11L220.575,24.094L220.473,24.079L220.371,24.066L220.269,24.053L220.166,24.042L220.063,24.032L219.96,24.024L219.856,24.017L219.752,24.011L219.647,24.006L219.542,24.003L219.437,24.001L219.331,24L187.5,24L187.5,20.773L187.499,20.703L187.496,20.632L187.492,20.563L187.486,20.493L187.478,20.424L187.468,20.356L187.457,20.288L187.444,20.221L187.43,20.155L187.414,20.089L187.396,20.023L187.377,19.958L187.356,19.894L187.333,19.831L187.31,19.768L187.284,19.707L187.258,19.645L187.229,19.585L187.2,19.526L187.169,19.467L187.136,19.409L187.103,19.352L187.068,19.296L187.031,19.241L186.994,19.187L186.955,19.133L186.915,19.081L186.874,19.03L186.831,18.979L186.787,18.93L186.742,18.882L186.696,18.835L186.649,18.789L186.601,18.744L186.552,18.7L186.502,18.658L186.45,18.617L186.398,18.576L186.345,18.538L186.291,18.5L186.235,18.464L186.179,18.429L186.122,18.395L186.064,18.363L186.006,18.332L185.946,18.302L185.886,18.274L185.825,18.247L185.763,18.222L185.7,18.198L185.637,18.176L185.573,18.155L185.508,18.135L185.443,18.118L185.377,18.102L185.31,18.087L185.243,18.074L185.175,18.063L185.107,18.053L185.038,18.045L184.969,18.039L184.899,18.035L184.829,18.032L184.758,18.031L101.242,18.031Z"/>
        </g>
        <g transform="matrix(1,0,0,1,-342,6)">
            <path d="M68.427,38.156L68.614,38.161L68.801,38.17L68.986,38.182L69.169,38.196L69.352,38.213L69.533,38.233L69.714,38.256L69.893,38.281L70.071,38.308L70.248,38.338L70.424,38.37L70.6,38.403L70.775,38.439L70.948,38.477L71.122,38.516L71.294,38.558L71.467,38.601L71.638,38.646L71.809,38.692L71.98,38.74L72.151,38.789L72.321,38.84L72.491,38.892L72.66,38.946L72.83,39.001L72.999,39.057L73.168,39.115L73.338,39.174L73.507,39.234L73.676,39.295L73.845,39.357L74.015,39.421L74.184,39.485L74.354,39.551L74.523,39.617L74.697,39.687L75.033,39.823L75.375,39.965L75.718,40.11L76.062,40.258L76.407,40.41L76.754,40.565L77.102,40.722L77.452,40.882L77.804,41.045L78.157,41.21L78.513,41.376L78.87,41.545L79.23,41.716L79.953,42.061L80.685,42.412L81.426,42.766L82.175,43.123L82.551,43.301L82.93,43.48L83.311,43.658L83.694,43.836L84.079,44.014L84.465,44.191L84.853,44.367L85.243,44.542L85.635,44.716L86.029,44.889L86.424,45.06L86.821,45.229L87.219,45.397L87.619,45.562L88.024,45.727L88.222,45.806L88.424,45.886L88.626,45.966L88.828,46.045L89.031,46.123L89.234,46.2L89.437,46.277L89.641,46.353L89.845,46.428L90.049,46.503L90.254,46.576L90.459,46.649L90.664,46.721L90.869,46.792L91.075,46.862L91.281,46.932L91.487,47L91.694,47.068L91.9,47.134L92.107,47.2L92.315,47.264L92.522,47.328L92.73,47.39L92.938,47.451L93.146,47.512L93.354,47.571L93.562,47.629L93.771,47.686L93.98,47.742L94.189,47.796L94.398,47.85L94.608,47.902L94.817,47.953L95.027,48.003L95.237,48.051L95.447,48.098L95.657,48.144L95.867,48.189L96.077,48.232L96.288,48.274L96.498,48.315L96.709,48.354L96.92,48.391L97.131,48.428L97.342,48.462L97.553,48.496L97.764,48.528L97.975,48.558L98.187,48.587L98.398,48.615L98.61,48.641L98.821,48.665L99.033,48.688L99.245,48.709L99.456,48.728L99.668,48.746L99.88,48.763L100.092,48.777L100.304,48.79L100.516,48.802L100.728,48.811L100.94,48.819L101.153,48.825L101.365,48.83L101.577,48.832L101.798,48.833L184.202,48.833L184.414,48.832L184.618,48.83L184.822,48.826L185.026,48.82L185.23,48.813L185.434,48.804L185.638,48.794L185.841,48.782L186.045,48.768L186.249,48.753L186.452,48.736L186.656,48.718L186.859,48.699L187.062,48.677L187.266,48.655L187.469,48.631L187.672,48.606L187.875,48.579L188.078,48.551L188.281,48.521L188.484,48.49L188.687,48.458L188.89,48.424L189.092,48.389L189.295,48.353L189.497,48.315L189.7,48.276L189.902,48.236L190.104,48.195L190.306,48.152L190.508,48.108L190.71,48.063L190.911,48.017L191.113,47.97L191.314,47.921L191.515,47.871L191.716,47.821L191.917,47.769L192.118,47.716L192.319,47.662L192.519,47.606L192.719,47.55L192.919,47.493L193.119,47.435L193.319,47.375L193.518,47.315L193.718,47.254L193.917,47.192L194.115,47.129L194.314,47.065L194.512,47L194.711,46.935L194.909,46.868L195.106,46.801L195.304,46.732L195.501,46.663L195.698,46.594L195.894,46.523L196.091,46.452L196.287,46.38L196.482,46.307L196.678,46.234L196.873,46.159L197.065,46.086L197.457,45.933L197.844,45.779L198.231,45.623L198.616,45.465L198.999,45.305L199.381,45.143L199.761,44.98L200.14,44.815L200.518,44.648L200.894,44.481L201.268,44.312L201.641,44.143L202.011,43.972L202.381,43.802L202.748,43.63L203.114,43.459L203.478,43.287L203.839,43.116L204.559,42.773L205.975,42.096L206.671,41.763L207.359,41.437L207.702,41.275L208.043,41.116L208.382,40.959L208.719,40.804L209.054,40.651L209.388,40.501L209.721,40.354L210.052,40.209L210.382,40.067L210.711,39.929L211.039,39.793L211.366,39.661L211.687,39.535L211.855,39.47L212.018,39.409L212.18,39.348L212.343,39.288L212.505,39.229L212.668,39.172L212.83,39.115L212.993,39.06L213.156,39.006L213.319,38.953L213.482,38.901L213.645,38.851L213.808,38.802L213.972,38.754L214.136,38.707L214.3,38.662L214.465,38.619L214.63,38.577L214.796,38.536L214.962,38.497L215.129,38.46L215.296,38.425L215.464,38.391L215.633,38.359L215.802,38.329L215.973,38.301L216.144,38.276L216.317,38.252L216.49,38.231L216.664,38.212L216.84,38.195L217.016,38.182L217.194,38.17L217.373,38.162L217.553,38.157L217.735,38.155L217.917,38.156L218.101,38.16L218.286,38.168L218.473,38.18L218.66,38.195L218.849,38.215L219.039,38.239L219.23,38.267L219.421,38.3L219.614,38.337L219.807,38.38L220,38.427L220.194,38.48L220.388,38.538L220.581,38.601L220.775,38.67L220.967,38.744L221.159,38.824L221.35,38.91L221.538,39.001L221.726,39.098L221.911,39.2L222.094,39.308L222.274,39.422L222.451,39.54L222.625,39.664L222.795,39.793L222.962,39.926L223.125,40.064L223.284,40.206L223.439,40.353L223.589,40.503L223.735,40.657L223.877,40.814L224.014,40.975L224.146,41.138L224.274,41.304L224.397,41.473L224.516,41.644L224.631,41.817L224.741,41.992L224.847,42.169L224.948,42.348L225.046,42.529L225.14,42.712L225.229,42.895L225.316,43.081L225.398,43.268L225.477,43.456L225.552,43.646L225.625,43.837L225.694,44.029L225.76,44.223L225.823,44.419L225.883,44.615L225.94,44.814L225.945,44.833L249.339,44.833L249.503,44.834L249.681,44.838L249.858,44.843L250.034,44.851L250.21,44.861L250.386,44.874L250.561,44.888L250.736,44.905L250.91,44.924L251.083,44.945L251.256,44.968L251.428,44.993L251.6,45.02L251.771,45.05L251.941,45.081L252.11,45.115L252.279,45.151L252.448,45.188L252.615,45.228L252.781,45.27L252.947,45.314L253.112,45.36L253.276,45.407L253.44,45.457L253.602,45.509L253.764,45.562L253.924,45.618L254.084,45.675L254.243,45.735L254.401,45.796L254.558,45.859L254.714,45.924L254.869,45.991L255.023,46.059L255.176,46.13L255.328,46.202L255.479,46.276L255.629,46.351L255.778,46.429L255.925,46.508L256.072,46.589L256.217,46.671L256.362,46.755L256.505,46.841L256.647,46.929L256.788,47.018L256.928,47.109L257.066,47.201L257.204,47.295L257.34,47.391L257.475,47.488L257.608,47.587L257.741,47.687L257.872,47.789L258.002,47.892L258.13,47.997L258.258,48.104L258.384,48.211L258.508,48.321L258.632,48.432L258.754,48.544L258.874,48.657L258.994,48.773L259.112,48.889L259.228,49.007L259.343,49.126L259.457,49.247L259.569,49.369L259.68,49.492L259.789,49.617L259.897,49.743L260.003,49.87L260.108,49.998L260.211,50.128L260.313,50.26L260.414,50.392L260.512,50.526L260.61,50.661L260.705,50.797L260.799,50.934L260.892,51.073L260.982,51.213L261.072,51.353L261.159,51.495L261.245,51.639L261.329,51.783L261.412,51.929L261.493,52.075L261.572,52.223L261.649,52.372L261.725,52.522L261.799,52.673L261.871,52.825L261.941,52.978L262.01,53.131L262.076,53.287L262.141,53.442L262.204,53.599L262.266,53.758L262.325,53.916L262.382,54.076L262.438,54.237L262.492,54.398L262.543,54.561L262.593,54.724L262.641,54.888L262.686,55.053L262.73,55.219L262.772,55.386L262.812,55.553L262.85,55.721L262.885,55.89L262.919,56.06L262.95,56.23L262.98,56.4L263.007,56.572L263.033,56.745L263.056,56.917L263.077,57.091L263.095,57.265L263.112,57.439L263.126,57.614L263.139,57.79L263.149,57.966L263.157,58.142L263.162,58.319L263.166,58.497L263.165,58.344L273.119,123.276L273.156,123.608L273.167,123.942L273.165,124.101L273.16,124.295L273.152,124.487L273.141,124.679L273.126,124.87L273.109,125.061L273.088,125.25L273.064,125.438L273.036,125.626L273.006,125.812L272.972,125.997L272.935,126.181L272.895,126.364L272.852,126.545L272.806,126.725L272.758,126.903L272.706,127.08L272.651,127.255L272.594,127.429L272.534,127.6L272.471,127.77L272.405,127.939L272.337,128.105L272.267,128.27L272.194,128.432L272.119,128.593L272.041,128.751L271.961,128.908L271.88,129.062L271.796,129.215L271.71,129.365L271.623,129.513L271.533,129.659L271.442,129.804L271.349,129.945L271.255,130.085L271.159,130.223L271.061,130.359L270.963,130.492L270.863,130.624L270.762,130.753L270.659,130.881L270.555,131.006L270.451,131.13L270.345,131.251L270.239,131.371L270.131,131.489L270.023,131.605L269.914,131.718L269.804,131.831L269.693,131.941L269.582,132.05L269.47,132.157L269.358,132.262L269.245,132.366L269.131,132.468L269.018,132.568L268.903,132.667L268.788,132.765L268.674,132.86L268.558,132.955L268.443,133.048L268.327,133.14L268.21,133.23L268.094,133.319L267.978,133.407L267.861,133.493L267.744,133.578L267.627,133.663L267.51,133.745L267.393,133.827L267.271,133.911L267.042,134.065L266.808,134.219L266.574,134.369L266.341,134.515L266.108,134.658L265.876,134.797L265.645,134.933L265.415,135.065L265.186,135.195L264.959,135.322L264.733,135.446L264.51,135.568L264.288,135.688L264.068,135.805L263.85,135.919L263.633,136.033L263.213,136.251L262.803,136.463L262.406,136.668L262.022,136.867L261.839,136.963L261.659,137.058L261.484,137.152L261.304,137.249L261.081,137.369L260.84,137.498L260.592,137.629L260.336,137.763L260.072,137.9L259.801,138.04L259.523,138.182L259.237,138.328L258.943,138.476L258.641,138.627L258.021,138.936L257.371,139.256L256.695,139.586L255.993,139.925L255.268,140.273L254.52,140.63L253.75,140.995L252.959,141.368L252.15,141.747L251.322,142.133L250.478,142.525L249.619,142.922L248.746,143.324L247.86,143.73L246.963,144.14L246.056,144.552L245.14,144.968L244.217,145.385L243.288,145.804L242.354,146.223L241.416,146.643L240.477,147.062L239.537,147.481L238.597,147.898L237.66,148.313L236.726,148.725L235.796,149.134L234.872,149.54L233.956,149.941L233.048,150.337L232.151,150.728L231.264,151.113L230.39,151.491L229.53,151.862L228.686,152.225L227.858,152.58L227.048,152.926L226.257,153.262L225.487,153.589L224.738,153.905L224.013,154.21L223.312,154.503L222.637,154.784L221.988,155.052L221.367,155.307L220.776,155.548L220.215,155.776L219.684,155.988L219.186,156.186L218.983,156.265L216.666,187.869L216.666,187.983L216.663,188.252L216.659,188.518L216.653,188.781L216.645,189.041L216.635,189.298L216.623,189.552L216.61,189.804L216.595,190.052L216.578,190.298L216.558,190.541L216.537,190.781L216.514,191.019L216.489,191.254L216.462,191.487L216.433,191.718L216.402,191.946L216.368,192.172L216.333,192.396L216.295,192.617L216.255,192.837L216.212,193.055L216.167,193.27L216.119,193.484L216.069,193.696L216.016,193.906L215.96,194.115L215.901,194.322L215.84,194.527L215.775,194.731L215.707,194.933L215.635,195.134L215.561,195.333L215.483,195.53L215.401,195.726L215.315,195.921L215.225,196.114L215.131,196.305L215.033,196.495L214.931,196.683L214.825,196.869L214.713,197.053L214.598,197.235L214.477,197.414L214.351,197.592L214.221,197.766L214.086,197.937L213.946,198.106L213.801,198.272L213.651,198.433L213.496,198.591L213.337,198.745L213.173,198.894L213.004,199.039L212.832,199.179L212.655,199.314L212.474,199.444L212.29,199.568L212.103,199.686L211.913,199.799L211.72,199.906L211.525,200.006L211.328,200.101L211.13,200.189L210.93,200.271L210.729,200.347L210.528,200.417L210.327,200.481L210.125,200.54L209.923,200.593L209.722,200.64L209.521,200.681L209.321,200.718L209.122,200.75L208.924,200.776L208.728,200.798L208.532,200.816L208.337,200.829L208.145,200.839L207.952,200.844L207.762,200.846L207.573,200.844L207.386,200.839L207.199,200.83L207.014,200.818L206.83,200.804L206.648,200.787L206.467,200.767L206.287,200.744L206.107,200.719L205.929,200.692L205.752,200.662L205.575,200.63L205.4,200.597L205.226,200.561L205.052,200.523L204.878,200.484L204.705,200.442L204.533,200.399L204.362,200.354L204.191,200.308L204.02,200.26L203.849,200.211L203.68,200.16L203.51,200.108L203.34,200.054L203.171,199.999L203.001,199.943L202.832,199.885L202.662,199.826L202.493,199.766L202.324,199.705L202.155,199.643L201.986,199.579L201.816,199.515L201.646,199.449L201.477,199.383L201.303,199.314L200.966,199.177L200.625,199.036L200.282,198.89L199.939,198.742L199.593,198.59L199.246,198.435L198.898,198.278L198.548,198.118L198.196,197.955L197.843,197.79L197.487,197.624L197.13,197.455L196.77,197.284L196.047,196.939L195.315,196.588L194.575,196.234L193.825,195.877L193.449,195.699L193.07,195.52L192.689,195.342L192.306,195.164L191.922,194.986L191.535,194.809L191.147,194.633L190.757,194.458L190.365,194.284L189.971,194.111L189.576,193.94L189.179,193.771L188.781,193.603L188.381,193.438L187.976,193.273L187.778,193.194L187.576,193.114L187.374,193.034L187.172,192.956L186.969,192.877L186.766,192.8L186.563,192.723L186.359,192.647L186.155,192.572L185.951,192.497L185.746,192.424L185.541,192.351L185.336,192.279L185.131,192.208L184.925,192.138L184.719,192.068L184.513,192L184.307,191.932L184.1,191.866L183.893,191.8L183.686,191.736L183.478,191.672L183.27,191.61L183.063,191.549L182.854,191.488L182.646,191.429L182.438,191.371L182.229,191.314L182.02,191.258L181.811,191.204L181.602,191.15L181.393,191.098L181.183,191.047L180.973,190.997L180.763,190.949L180.553,190.902L180.343,190.856L180.133,190.811L179.923,190.768L179.712,190.726L179.502,190.686L179.291,190.646L179.08,190.609L178.869,190.572L178.658,190.538L178.447,190.504L178.236,190.472L178.025,190.442L177.813,190.413L177.602,190.385L177.39,190.36L177.179,190.335L176.967,190.312L176.756,190.291L176.544,190.272L176.332,190.254L176.12,190.237L175.908,190.223L175.696,190.21L175.484,190.198L175.272,190.189L175.06,190.181L174.847,190.175L174.635,190.17L174.423,190.168L174.202,190.167L111.798,190.167L111.577,190.168L111.365,190.17L111.153,190.175L110.94,190.181L110.728,190.189L110.516,190.198L110.304,190.21L110.092,190.223L109.88,190.237L109.668,190.254L109.456,190.272L109.244,190.291L109.033,190.312L108.821,190.335L108.61,190.36L108.398,190.385L108.187,190.413L107.975,190.442L107.764,190.472L107.553,190.504L107.342,190.538L107.131,190.572L106.92,190.609L106.709,190.646L106.498,190.686L106.288,190.726L106.077,190.768L105.867,190.811L105.657,190.856L105.447,190.902L105.237,190.949L105.027,190.997L104.817,191.047L104.608,191.098L104.398,191.15L104.189,191.204L103.98,191.258L103.771,191.314L103.562,191.371L103.354,191.429L103.146,191.488L102.937,191.549L102.73,191.61L102.522,191.672L102.314,191.736L102.107,191.8L101.9,191.866L101.693,191.932L101.487,192L101.281,192.068L101.075,192.138L100.869,192.208L100.664,192.279L100.458,192.351L100.254,192.424L100.049,192.497L99.845,192.572L99.641,192.647L99.437,192.723L99.234,192.8L99.031,192.877L98.828,192.956L98.626,193.034L98.424,193.114L98.222,193.194L98.024,193.273L97.619,193.438L97.219,193.603L96.821,193.771L96.424,193.94L96.029,194.111L95.635,194.284L95.243,194.458L94.853,194.633L94.465,194.809L94.078,194.986L93.694,195.164L93.311,195.342L92.93,195.52L92.551,195.699L92.175,195.877L91.425,196.234L90.685,196.588L89.953,196.939L89.23,197.284L88.87,197.455L88.513,197.624L88.157,197.79L87.804,197.955L87.452,198.118L87.102,198.278L86.754,198.435L86.407,198.59L86.061,198.742L85.718,198.89L85.375,199.036L85.034,199.177L84.697,199.314L84.523,199.383L84.354,199.449L84.184,199.515L84.015,199.579L83.845,199.643L83.676,199.705L83.507,199.766L83.338,199.826L83.168,199.885L82.999,199.943L82.829,199.999L82.66,200.054L82.49,200.108L82.32,200.16L82.15,200.211L81.98,200.26L81.809,200.308L81.638,200.354L81.467,200.399L81.295,200.442L81.122,200.484L80.948,200.523L80.774,200.561L80.6,200.597L80.425,200.63L80.248,200.662L80.071,200.692L79.893,200.719L79.713,200.744L79.533,200.767L79.352,200.787L79.17,200.804L78.986,200.818L78.801,200.83L78.614,200.839L78.427,200.844L78.238,200.846L78.048,200.844L77.855,200.839L77.663,200.829L77.468,200.816L77.272,200.798L77.076,200.776L76.878,200.75L76.679,200.718L76.479,200.681L76.278,200.64L76.077,200.593L75.875,200.54L75.673,200.481L75.472,200.417L75.271,200.347L75.07,200.271L74.87,200.189L74.672,200.101L74.475,200.006L74.28,199.906L74.087,199.799L73.897,199.686L73.71,199.568L73.526,199.444L73.345,199.314L73.168,199.179L72.996,199.039L72.827,198.894L72.663,198.745L72.504,198.591L72.349,198.433L72.199,198.271L72.054,198.106L71.914,197.938L71.779,197.766L71.648,197.591L71.523,197.414L71.402,197.234L71.286,197.053L71.175,196.869L71.069,196.683L70.967,196.495L70.868,196.305L70.775,196.114L70.685,195.921L70.599,195.726L70.517,195.53L70.439,195.333L70.365,195.134L70.293,194.933L70.225,194.731L70.16,194.527L70.099,194.322L70.04,194.115L69.984,193.906L69.931,193.696L69.881,193.484L69.833,193.27L69.788,193.055L69.745,192.837L69.705,192.617L69.667,192.396L69.631,192.172L69.598,191.946L69.567,191.718L69.538,191.487L69.511,191.254L69.486,191.019L69.463,190.781L69.442,190.541L69.422,190.298L69.405,190.052L69.39,189.804L69.377,189.552L69.365,189.298L69.355,189.041L69.347,188.781L69.341,188.518L69.337,188.252L69.334,187.983L69.334,187.869L59.333,51.436L59.334,51.017L59.337,50.748L59.341,50.482L59.347,50.219L59.355,49.959L59.365,49.702L59.377,49.448L59.39,49.196L59.405,48.948L59.422,48.702L59.442,48.459L59.463,48.219L59.486,47.981L59.511,47.746L59.538,47.513L59.567,47.282L59.598,47.054L59.632,46.828L59.667,46.604L59.705,46.383L59.745,46.163L59.788,45.945L59.833,45.73L59.881,45.516L59.931,45.304L59.984,45.094L60.04,44.885L60.099,44.678L60.161,44.473L60.225,44.269L60.293,44.067L60.365,43.866L60.439,43.667L60.517,43.47L60.599,43.274L60.685,43.079L60.775,42.886L60.869,42.695L60.966,42.505L61.069,42.317L61.175,42.131L61.287,41.947L61.402,41.765L61.523,41.586L61.648,41.409L61.779,41.234L61.914,41.062L62.054,40.894L62.199,40.729L62.349,40.567L62.504,40.409L62.663,40.255L62.827,40.106L62.996,39.961L63.169,39.821L63.345,39.686L63.526,39.556L63.71,39.432L63.897,39.314L64.087,39.201L64.28,39.095L64.475,38.994L64.672,38.899L64.87,38.811L65.07,38.729L65.271,38.653L65.472,38.583L65.674,38.518L65.875,38.46L66.077,38.407L66.278,38.36L66.479,38.319L66.679,38.282L66.878,38.25L67.076,38.224L67.273,38.202L67.468,38.184L67.663,38.171L67.856,38.161L68.047,38.156L68.238,38.154L68.427,38.156ZM68.124,42.322L68.014,42.325L67.905,42.33L67.798,42.338L67.692,42.347L67.586,42.359L67.482,42.373L67.38,42.39L67.278,42.408L67.178,42.429L67.079,42.452L66.981,42.478L66.885,42.506L66.789,42.536L66.695,42.569L66.602,42.604L66.511,42.642L66.421,42.682L66.332,42.724L66.244,42.77L66.158,42.818L66.073,42.868L65.989,42.921L65.906,42.977L65.825,43.035L65.745,43.096L65.666,43.16L65.589,43.226L65.513,43.295L65.439,43.367L65.365,43.442L65.293,43.52L65.223,43.6L65.153,43.684L65.085,43.77L65.019,43.859L64.954,43.951L64.89,44.046L64.827,44.144L64.766,44.246L64.706,44.35L64.648,44.457L64.591,44.567L64.535,44.681L64.481,44.797L64.428,44.917L64.377,45.04L64.327,45.166L64.278,45.296L64.231,45.428L64.186,45.564L64.141,45.704L64.098,45.846L64.057,45.992L64.017,46.142L63.979,46.294L63.942,46.451L63.906,46.61L63.872,46.773L63.839,46.94L63.808,47.11L63.778,47.284L63.75,47.461L63.723,47.642L63.698,47.826L63.674,48.014L63.652,48.206L63.631,48.402L63.612,48.601L63.594,48.804L63.578,49.011L63.563,49.221L63.55,49.435L63.538,49.653L63.528,49.875L63.52,50.101L63.513,50.331L63.507,50.565L63.503,50.802L63.501,51.044L63.5,51.29L73.5,187.71L73.501,187.956L73.503,188.198L73.507,188.435L73.513,188.669L73.52,188.899L73.528,189.125L73.538,189.347L73.55,189.565L73.563,189.779L73.578,189.989L73.594,190.196L73.612,190.399L73.631,190.598L73.652,190.794L73.674,190.986L73.698,191.174L73.723,191.358L73.75,191.539L73.778,191.716L73.808,191.89L73.839,192.06L73.872,192.227L73.906,192.39L73.942,192.549L73.979,192.706L74.017,192.858L74.057,193.008L74.098,193.154L74.141,193.296L74.186,193.436L74.231,193.571L74.278,193.704L74.327,193.834L74.377,193.96L74.428,194.083L74.481,194.203L74.535,194.319L74.591,194.433L74.648,194.543L74.706,194.65L74.766,194.754L74.827,194.856L74.89,194.954L74.954,195.049L75.019,195.141L75.085,195.23L75.153,195.316L75.223,195.4L75.293,195.48L75.365,195.558L75.439,195.633L75.513,195.705L75.589,195.774L75.666,195.84L75.745,195.904L75.825,195.965L75.906,196.023L75.989,196.079L76.073,196.132L76.158,196.182L76.244,196.23L76.332,196.276L76.421,196.318L76.511,196.358L76.602,196.396L76.695,196.431L76.789,196.464L76.885,196.494L76.981,196.522L77.079,196.548L77.178,196.571L77.278,196.592L77.38,196.61L77.482,196.627L77.586,196.641L77.691,196.653L77.798,196.662L77.905,196.669L78.014,196.675L78.124,196.678L78.235,196.679L78.348,196.678L78.461,196.675L78.576,196.669L78.692,196.662L78.809,196.653L78.927,196.642L79.047,196.628L79.167,196.613L79.289,196.596L79.412,196.578L79.536,196.557L79.661,196.534L79.787,196.51L79.914,196.484L80.043,196.456L80.173,196.426L80.303,196.395L80.435,196.362L80.568,196.327L80.702,196.291L80.837,196.253L80.974,196.214L81.111,196.173L81.249,196.13L81.389,196.086L81.529,196.04L81.671,195.993L81.814,195.945L81.957,195.895L82.102,195.843L82.248,195.791L82.395,195.737L82.543,195.681L82.692,195.625L82.842,195.567L82.993,195.507L83.145,195.447L83.452,195.322L83.763,195.193L84.078,195.06L84.397,194.922L84.72,194.78L85.047,194.634L85.378,194.485L85.712,194.332L86.05,194.176L86.392,194.016L86.738,193.854L87.087,193.689L87.44,193.522L88.156,193.18L88.886,192.83L89.63,192.474L90.388,192.113L90.771,191.932L91.158,191.749L91.548,191.567L91.941,191.384L92.338,191.201L92.737,191.018L93.139,190.835L93.545,190.653L93.953,190.472L94.364,190.292L94.779,190.112L95.196,189.934L95.615,189.758L96.038,189.583L96.463,189.41L96.677,189.324L96.892,189.239L97.107,189.154L97.322,189.07L97.539,188.987L97.756,188.904L97.973,188.822L98.192,188.741L98.41,188.66L98.63,188.58L98.85,188.501L99.071,188.422L99.292,188.344L99.515,188.268L99.737,188.192L99.96,188.116L100.184,188.042L100.409,187.969L100.634,187.896L100.859,187.825L101.086,187.755L101.312,187.685L101.54,187.617L101.768,187.55L101.996,187.483L102.225,187.418L102.455,187.354L102.685,187.291L102.916,187.23L103.147,187.169L103.379,187.11L103.611,187.052L103.844,186.996L104.077,186.94L104.311,186.886L104.545,186.834L104.78,186.782L105.015,186.732L105.251,186.684L105.488,186.637L105.724,186.591L105.962,186.547L106.2,186.505L106.438,186.464L106.677,186.424L106.916,186.386L107.155,186.35L107.396,186.316L107.636,186.283L107.877,186.251L108.119,186.222L108.36,186.194L108.603,186.168L108.845,186.144L109.089,186.121L109.332,186.101L109.576,186.082L109.821,186.065L110.065,186.05L110.311,186.037L110.556,186.026L110.802,186.016L111.048,186.009L111.295,186.004L111.542,186.001L111.79,186L174.21,186L174.458,186.001L174.705,186.004L174.952,186.009L175.198,186.016L175.444,186.026L175.689,186.037L175.935,186.05L176.179,186.065L176.424,186.082L176.668,186.101L176.911,186.121L177.155,186.144L177.397,186.168L177.64,186.194L177.881,186.222L178.123,186.251L178.364,186.283L178.604,186.316L178.845,186.35L179.084,186.386L179.323,186.424L179.562,186.464L179.8,186.505L180.038,186.547L180.276,186.591L180.512,186.637L180.749,186.684L180.985,186.732L181.22,186.782L181.455,186.834L181.689,186.886L181.923,186.94L182.156,186.996L182.389,187.052L182.621,187.11L182.853,187.169L183.084,187.23L183.315,187.291L183.545,187.354L183.775,187.418L184.004,187.483L184.232,187.55L184.46,187.617L184.688,187.685L184.914,187.755L185.141,187.825L185.366,187.896L185.591,187.969L185.816,188.042L186.04,188.116L186.263,188.192L186.485,188.268L186.708,188.344L186.929,188.422L187.15,188.501L187.37,188.58L187.59,188.66L187.808,188.741L188.027,188.822L188.244,188.904L188.461,188.987L188.678,189.07L188.893,189.154L189.108,189.239L189.323,189.324L189.537,189.41L189.962,189.583L190.385,189.758L190.804,189.934L191.221,190.112L191.636,190.292L192.047,190.472L192.455,190.653L192.861,190.835L193.263,191.018L193.662,191.201L194.059,191.384L194.452,191.567L194.842,191.749L195.229,191.932L195.612,192.113L196.37,192.474L197.114,192.83L197.844,193.18L198.56,193.522L198.913,193.689L199.262,193.854L199.608,194.016L199.95,194.176L200.288,194.332L200.622,194.485L200.953,194.634L201.28,194.78L201.603,194.922L201.922,195.06L202.237,195.193L202.548,195.322L202.855,195.447L203.007,195.507L203.158,195.567L203.308,195.625L203.457,195.681L203.605,195.737L203.752,195.791L203.898,195.843L204.043,195.895L204.186,195.945L204.329,195.993L204.471,196.04L204.611,196.086L204.751,196.13L204.889,196.173L205.026,196.214L205.163,196.253L205.298,196.291L205.432,196.327L205.565,196.362L205.697,196.395L205.827,196.426L205.957,196.456L206.086,196.484L206.213,196.51L206.339,196.534L206.464,196.557L206.588,196.578L206.711,196.596L206.833,196.613L206.953,196.628L207.073,196.642L207.191,196.653L207.308,196.662L207.424,196.669L207.539,196.675L207.652,196.678L207.765,196.679L207.876,196.678L207.986,196.675L208.095,196.669L208.202,196.662L208.309,196.653L208.414,196.641L208.518,196.627L208.62,196.61L208.722,196.592L208.822,196.571L208.921,196.548L209.019,196.522L209.115,196.494L209.211,196.464L209.305,196.431L209.398,196.396L209.489,196.358L209.579,196.318L209.668,196.276L209.756,196.23L209.842,196.182L209.927,196.132L210.011,196.079L210.094,196.023L210.175,195.965L210.255,195.904L210.334,195.84L210.411,195.774L210.487,195.705L210.561,195.633L210.635,195.558L210.707,195.48L210.777,195.4L210.847,195.316L210.915,195.23L210.981,195.141L211.046,195.049L211.11,194.954L211.173,194.856L211.234,194.754L211.294,194.65L211.352,194.543L211.409,194.433L211.465,194.319L211.519,194.203L211.572,194.083L211.623,193.96L211.673,193.834L211.722,193.704L211.769,193.571L211.814,193.436L211.859,193.296L211.902,193.154L211.943,193.008L211.983,192.858L212.021,192.706L212.058,192.549L212.094,192.39L212.128,192.227L212.161,192.06L212.192,191.89L212.222,191.716L212.25,191.539L212.277,191.358L212.302,191.174L212.326,190.986L212.348,190.794L212.369,190.598L212.388,190.399L212.406,190.196L212.422,189.989L212.437,189.779L212.45,189.565L212.462,189.347L212.472,189.125L212.48,188.899L212.487,188.669L212.493,188.435L212.497,188.198L212.499,187.956L212.5,187.71L215.029,153.215L215.04,153.217L215.054,153.218L215.072,153.217L215.092,153.215L215.116,153.212L215.142,153.207L215.204,153.194L215.278,153.175L215.362,153.151L215.459,153.122L215.566,153.088L215.684,153.048L215.813,153.004L215.953,152.955L216.103,152.902L216.263,152.843L216.434,152.78L216.614,152.713L216.805,152.64L217.214,152.483L217.66,152.309L218.142,152.118L218.658,151.911L219.207,151.688L219.788,151.451L220.4,151.2L221.04,150.935L221.708,150.657L222.402,150.367L223.121,150.065L223.863,149.751L224.628,149.427L225.414,149.093L226.219,148.749L227.042,148.396L227.882,148.035L228.738,147.666L229.607,147.29L230.49,146.907L231.383,146.518L232.287,146.123L233.199,145.724L234.119,145.32L235.045,144.912L235.975,144.502L236.909,144.089L237.844,143.673L238.78,143.257L239.716,142.839L240.649,142.421L241.578,142.004L242.503,141.587L243.422,141.172L244.333,140.759L245.235,140.348L246.127,139.941L247.007,139.537L247.874,139.138L248.727,138.744L249.565,138.355L250.385,137.973L251.187,137.597L251.969,137.228L252.73,136.867L253.469,136.515L254.184,136.172L254.874,135.838L255.537,135.514L256.173,135.201L256.779,134.9L257.071,134.753L257.355,134.61L257.631,134.47L257.898,134.333L258.158,134.199L258.409,134.069L258.652,133.942L258.885,133.818L259.11,133.698L259.325,133.582L259.514,133.48L259.706,133.378L259.899,133.276L260.094,133.173L260.49,132.968L260.892,132.76L261.297,132.551L261.706,132.339L261.911,132.231L262.117,132.123L262.322,132.013L262.528,131.903L262.733,131.792L262.938,131.679L263.142,131.565L263.345,131.449L263.548,131.332L263.749,131.214L263.949,131.094L264.148,130.972L264.345,130.849L264.54,130.724L264.733,130.597L264.925,130.468L265.02,130.403L265.114,130.337L265.207,130.271L265.3,130.204L265.393,130.136L265.484,130.068L265.575,130L265.666,129.931L265.755,129.861L265.844,129.791L265.932,129.72L266.019,129.649L266.105,129.577L266.191,129.504L266.276,129.431L266.359,129.357L266.442,129.282L266.524,129.207L266.605,129.131L266.685,129.054L266.764,128.977L266.843,128.899L266.92,128.821L266.996,128.741L267.071,128.661L267.144,128.58L267.217,128.498L267.289,128.416L267.359,128.333L267.428,128.249L267.496,128.164L267.563,128.079L267.629,127.993L267.693,127.906L267.756,127.818L267.818,127.729L267.879,127.639L267.938,127.549L267.996,127.458L268.052,127.366L268.107,127.273L268.16,127.179L268.213,127.084L268.263,126.988L268.312,126.892L268.36,126.794L268.406,126.696L268.451,126.596L268.494,126.496L268.535,126.395L268.575,126.293L268.613,126.189L268.649,126.085L268.684,125.98L268.717,125.874L268.749,125.767L268.778,125.659L268.806,125.549L268.832,125.439L268.857,125.328L268.879,125.215L268.9,125.102L268.918,124.988L268.935,124.872L268.95,124.755L268.963,124.638L268.974,124.519L268.984,124.399L268.991,124.278L268.996,124.155L268.999,124.032L269,123.907L259,58.675L258.999,58.55L258.997,58.425L258.993,58.301L258.987,58.177L258.98,58.054L258.972,57.931L258.962,57.808L258.95,57.686L258.937,57.565L258.922,57.443L258.906,57.323L258.888,57.202L258.869,57.083L258.849,56.963L258.827,56.844L258.803,56.726L258.778,56.608L258.752,56.491L258.724,56.374L258.695,56.258L258.665,56.143L258.633,56.028L258.599,55.913L258.565,55.799L258.529,55.686L258.491,55.573L258.453,55.461L258.413,55.35L258.371,55.239L258.329,55.129L258.285,55.019L258.239,54.911L258.193,54.802L258.145,54.695L258.096,54.588L258.045,54.482L257.994,54.377L257.941,54.272L257.887,54.168L257.832,54.065L257.775,53.963L257.718,53.861L257.659,53.76L257.599,53.66L257.537,53.561L257.475,53.462L257.412,53.364L257.347,53.267L257.281,53.171L257.214,53.076L257.146,52.982L257.077,52.888L257.007,52.795L256.936,52.703L256.863,52.613L256.79,52.522L256.715,52.433L256.64,52.345L256.563,52.258L256.486,52.171L256.407,52.086L256.327,52.001L256.247,51.918L256.165,51.835L256.083,51.754L255.999,51.673L255.915,51.593L255.829,51.515L255.743,51.437L255.655,51.361L255.567,51.285L255.478,51.211L255.388,51.137L255.297,51.065L255.205,50.994L255.112,50.923L255.019,50.854L254.924,50.786L254.829,50.719L254.733,50.654L254.636,50.589L254.538,50.525L254.44,50.463L254.341,50.402L254.24,50.342L254.14,50.283L254.038,50.225L253.935,50.169L253.832,50.113L253.728,50.059L253.624,50.006L253.518,49.955L253.412,49.905L253.305,49.855L253.198,49.808L253.09,49.761L252.981,49.716L252.871,49.672L252.761,49.629L252.65,49.588L252.539,49.548L252.427,49.509L252.314,49.471L252.201,49.435L252.087,49.401L251.973,49.367L251.858,49.336L251.742,49.305L251.626,49.276L251.509,49.248L251.392,49.222L251.274,49.197L251.156,49.173L251.037,49.151L250.918,49.131L250.798,49.112L250.678,49.094L250.557,49.078L250.436,49.063L250.314,49.05L250.192,49.038L250.069,49.028L249.946,49.02L249.823,49.013L249.699,49.007L249.575,49.003L249.45,49.001L249.325,49L222.421,49L222.406,48.802L222.389,48.607L222.37,48.415L222.35,48.227L222.329,48.042L222.307,47.861L222.283,47.683L222.257,47.508L222.231,47.337L222.202,47.169L222.173,47.004L222.142,46.843L222.11,46.685L222.076,46.53L222.041,46.378L222.005,46.23L221.968,46.084L221.929,45.942L221.889,45.803L221.847,45.667L221.804,45.534L221.76,45.404L221.714,45.277L221.668,45.153L221.619,45.032L221.57,44.914L221.519,44.799L221.467,44.687L221.414,44.577L221.359,44.471L221.303,44.367L221.246,44.267L221.188,44.169L221.128,44.074L221.067,43.982L221.005,43.892L220.941,43.805L220.877,43.721L220.811,43.64L220.744,43.561L220.675,43.485L220.605,43.412L220.534,43.341L220.462,43.273L220.389,43.207L220.314,43.144L220.239,43.083L220.162,43.025L220.083,42.969L220.004,42.916L219.923,42.866L219.841,42.817L219.758,42.771L219.674,42.728L219.589,42.686L219.502,42.648L219.415,42.611L219.326,42.577L219.236,42.545L219.145,42.515L219.052,42.487L218.959,42.462L218.864,42.439L218.768,42.418L218.671,42.399L218.573,42.382L218.474,42.367L218.374,42.355L218.272,42.344L218.17,42.336L218.066,42.329L217.961,42.325L217.855,42.322L217.748,42.321L217.64,42.323L217.531,42.326L217.421,42.331L217.309,42.338L217.197,42.347L217.083,42.357L216.969,42.37L216.853,42.384L216.736,42.4L216.619,42.418L216.5,42.437L216.38,42.458L216.259,42.481L216.137,42.505L216.014,42.532L215.89,42.559L215.765,42.588L215.639,42.619L215.512,42.652L215.384,42.686L215.254,42.721L215.124,42.758L214.993,42.796L214.861,42.836L214.728,42.877L214.594,42.92L214.458,42.964L214.322,43.009L214.185,43.056L214.047,43.104L213.908,43.153L213.768,43.203L213.627,43.255L213.485,43.308L213.342,43.362L213.198,43.418L212.908,43.532L212.614,43.651L212.316,43.774L212.014,43.901L211.709,44.032L211.4,44.167L211.087,44.306L210.771,44.448L210.451,44.593L210.128,44.742L209.802,44.893L209.472,45.048L209.139,45.204L208.462,45.525L207.772,45.855L206.354,46.533L205.626,46.88L205.258,47.055L204.887,47.23L204.512,47.405L204.135,47.581L203.755,47.757L203.372,47.932L202.986,48.108L202.598,48.283L202.207,48.457L201.813,48.631L201.416,48.804L201.017,48.975L200.615,49.146L200.21,49.315L199.803,49.482L199.393,49.647L198.981,49.811L198.567,49.972L198.359,50.052L198.15,50.132L197.941,50.21L197.731,50.288L197.52,50.365L197.309,50.442L197.097,50.518L196.885,50.593L196.672,50.668L196.459,50.742L196.245,50.815L196.03,50.887L195.815,50.958L195.6,51.028L195.383,51.098L195.167,51.167L194.949,51.235L194.732,51.301L194.513,51.367L194.294,51.432L194.075,51.496L193.855,51.559L193.635,51.621L193.414,51.682L193.193,51.741L192.971,51.8L192.748,51.857L192.525,51.914L192.302,51.969L192.078,52.023L191.854,52.076L191.629,52.127L191.404,52.178L191.178,52.227L190.952,52.274L190.725,52.321L190.498,52.366L190.271,52.41L190.043,52.452L189.814,52.493L189.585,52.532L189.356,52.57L189.126,52.607L188.896,52.642L188.665,52.676L188.434,52.708L188.203,52.738L187.971,52.767L187.739,52.795L187.506,52.82L187.273,52.845L187.04,52.867L186.806,52.888L186.572,52.907L186.338,52.924L186.103,52.94L185.867,52.954L185.632,52.966L185.396,52.976L185.159,52.985L184.923,52.991L184.685,52.996L184.448,52.999L184.21,53L101.79,53L101.542,52.999L101.295,52.996L101.048,52.991L100.802,52.984L100.556,52.974L100.311,52.963L100.065,52.95L99.821,52.935L99.576,52.918L99.332,52.899L99.089,52.879L98.845,52.856L98.603,52.832L98.36,52.806L98.119,52.778L97.877,52.749L97.636,52.717L97.396,52.684L97.155,52.65L96.916,52.614L96.677,52.576L96.438,52.536L96.2,52.495L95.962,52.453L95.725,52.409L95.488,52.363L95.251,52.316L95.015,52.268L94.78,52.218L94.545,52.166L94.311,52.114L94.077,52.06L93.844,52.004L93.611,51.948L93.379,51.89L93.147,51.831L92.916,51.77L92.685,51.709L92.455,51.646L92.225,51.582L91.996,51.517L91.768,51.451L91.54,51.383L91.312,51.315L91.086,51.245L90.859,51.175L90.634,51.104L90.409,51.031L90.184,50.958L89.96,50.884L89.737,50.809L89.515,50.733L89.293,50.656L89.071,50.578L88.85,50.499L88.63,50.42L88.411,50.34L88.192,50.259L87.973,50.178L87.756,50.096L87.539,50.013L87.322,49.93L87.107,49.846L86.892,49.761L86.677,49.676L86.464,49.59L86.038,49.417L85.616,49.242L85.196,49.066L84.779,48.888L84.364,48.709L83.953,48.528L83.545,48.347L83.139,48.165L82.737,47.982L82.338,47.799L81.941,47.616L81.548,47.433L81.158,47.251L80.771,47.068L80.388,46.887L79.63,46.526L78.886,46.17L78.156,45.82L77.44,45.479L77.087,45.311L76.738,45.146L76.392,44.984L76.05,44.824L75.712,44.668L75.378,44.515L75.047,44.366L74.72,44.22L74.397,44.078L74.078,43.94L73.763,43.807L73.452,43.678L73.145,43.553L72.993,43.493L72.842,43.433L72.692,43.375L72.543,43.319L72.395,43.263L72.248,43.209L72.102,43.157L71.957,43.105L71.814,43.055L71.671,43.007L71.529,42.96L71.389,42.914L71.249,42.87L71.111,42.827L70.974,42.786L70.837,42.747L70.702,42.709L70.568,42.673L70.435,42.638L70.303,42.605L70.173,42.574L70.043,42.544L69.915,42.516L69.787,42.49L69.661,42.466L69.536,42.443L69.412,42.422L69.289,42.404L69.167,42.387L69.047,42.372L68.927,42.358L68.809,42.347L68.692,42.338L68.576,42.331L68.461,42.325L68.348,42.322L68.235,42.321L68.124,42.322ZM239.377,64.839L239.46,64.841L239.543,64.844L239.625,64.847L239.708,64.852L239.79,64.858L239.872,64.865L239.953,64.873L240.034,64.881L240.115,64.891L240.196,64.902L240.276,64.914L240.356,64.927L240.436,64.941L240.515,64.956L240.594,64.972L240.673,64.988L240.751,65.006L240.829,65.025L240.906,65.045L240.983,65.065L241.06,65.087L241.137,65.109L241.213,65.133L241.288,65.157L241.363,65.182L241.438,65.208L241.513,65.235L241.586,65.263L241.66,65.292L241.733,65.322L241.806,65.352L241.878,65.384L241.95,65.416L242.021,65.449L242.092,65.483L242.162,65.518L242.232,65.554L242.301,65.59L242.37,65.627L242.438,65.666L242.506,65.705L242.574,65.744L242.64,65.785L242.707,65.826L242.773,65.868L242.838,65.911L242.902,65.955L242.967,65.999L243.03,66.044L243.093,66.09L243.156,66.137L243.217,66.184L243.279,66.232L243.339,66.281L243.4,66.331L243.459,66.381L243.518,66.432L243.576,66.483L243.634,66.536L243.691,66.589L243.747,66.643L243.803,66.697L243.858,66.752L243.913,66.808L243.966,66.864L244.019,66.921L244.072,66.979L244.124,67.037L244.175,67.096L244.225,67.156L244.275,67.216L244.324,67.277L244.372,67.338L244.42,67.4L244.467,67.462L244.513,67.526L244.558,67.589L244.603,67.653L244.647,67.718L244.69,67.784L244.732,67.85L244.774,67.916L244.815,67.983L244.855,68.051L244.894,68.119L244.933,68.187L244.97,68.257L245.007,68.326L245.043,68.396L245.078,68.467L245.113,68.538L245.147,68.61L245.179,68.682L245.211,68.754L245.242,68.827L245.272,68.901L245.302,68.974L245.33,69.049L245.358,69.124L245.385,69.199L245.41,69.274L245.435,69.35L245.459,69.427L245.483,69.504L245.505,69.581L245.526,69.658L245.547,69.736L245.566,69.815L245.584,69.894L245.602,69.973L245.619,70.052L245.634,70.132L245.649,70.212L245.663,70.293L245.675,70.373L245.687,70.455L245.698,70.536L245.708,70.618L245.717,70.7L245.724,70.782L245.731,70.865L245.737,70.948L245.742,71.031L245.745,71.115L245.748,71.199L245.749,71.283L245.75,71.367L252.424,115.383L252.423,115.468L252.421,115.551L252.417,115.633L252.413,115.715L252.407,115.796L252.399,115.876L252.39,115.956L252.38,116.034L252.369,116.112L252.357,116.19L252.343,116.266L252.328,116.342L252.312,116.417L252.294,116.492L252.276,116.565L252.256,116.638L252.235,116.711L252.213,116.782L252.19,116.853L252.165,116.923L252.14,116.993L252.113,117.062L252.086,117.13L252.057,117.198L252.027,117.265L251.996,117.331L251.965,117.397L251.932,117.462L251.898,117.527L251.863,117.591L251.828,117.654L251.791,117.717L251.753,117.779L251.715,117.841L251.675,117.902L251.635,117.962L251.594,118.022L251.552,118.081L251.509,118.14L251.465,118.198L251.42,118.256L251.375,118.313L251.329,118.37L251.282,118.426L251.234,118.481L251.185,118.537L251.136,118.591L251.086,118.645L251.035,118.699L250.984,118.752L250.932,118.804L250.879,118.857L250.825,118.908L250.771,118.96L250.661,119.061L250.549,119.16L250.434,119.258L250.317,119.354L250.198,119.448L250.077,119.541L249.955,119.632L249.83,119.722L249.704,119.81L249.576,119.897L249.447,119.983L249.317,120.068L249.185,120.151L249.053,120.233L248.919,120.314L248.785,120.394L248.65,120.473L248.514,120.55L248.378,120.627L248.241,120.703L248.104,120.779L247.83,120.927L247.556,121.073L247.283,121.216L247.012,121.357L246.744,121.497L246.48,121.636L246.221,121.774L245.967,121.912L245.823,121.99L245.673,122.071L245.356,122.24L245.015,122.418L244.652,122.605L244.268,122.801L243.863,123.004L243.439,123.215L242.996,123.434L242.536,123.659L242.059,123.891L241.566,124.129L241.058,124.372L240.536,124.621L240.001,124.874L239.453,125.133L238.894,125.395L238.325,125.661L237.746,125.93L237.159,126.202L236.563,126.477L235.961,126.754L235.353,127.033L234.74,127.313L234.123,127.594L233.503,127.876L232.88,128.158L231.631,128.721L230.384,129.28L229.145,129.832L227.923,130.374L226.723,130.903L225.554,131.415L224.422,131.908L223.336,132.378L222.811,132.603L222.301,132.822L221.805,133.034L221.325,133.238L220.862,133.433L220.417,133.621L219.989,133.8L219.581,133.969L219.194,134.129L218.827,134.279L218.482,134.419L218.161,134.548L217.863,134.665L217.59,134.772L217.343,134.866L217.122,134.948L216.928,135.017L216.842,135.047L216.763,135.073L216.692,135.096L216.628,135.116L216.571,135.132L216.522,135.145L216.481,135.154L216.447,135.159L216.434,135.161L216.422,135.161L216.412,135.161L216.405,135.159L217.181,124.238L217.975,113.034L218.885,100.176L219.346,93.636L219.793,87.296L220.21,81.357L220.582,76.025L220.896,71.503L221.026,69.61L221.137,67.996L221.225,66.686L221.289,65.706L221.311,65.348L221.327,65.082L221.337,64.911L221.338,64.862L221.339,64.839L239.293,64.839L239.377,64.839ZM225.244,69.005L225.183,69.895L225.053,71.79L224.739,76.315L224.366,81.648L223.949,87.588L223.503,93.929L223.041,100.469L222.131,113.328L221.337,124.533L221.031,128.833L221.167,128.775L221.685,128.552L222.763,128.085L223.886,127.597L225.047,127.088L226.238,126.563L227.453,126.024L228.684,125.476L229.923,124.92L231.165,124.361L231.782,124.081L232.398,123.801L233.011,123.522L233.619,123.244L234.222,122.968L234.819,122.693L235.409,122.421L235.991,122.151L236.564,121.884L237.127,121.621L237.679,121.362L238.22,121.107L238.747,120.857L239.261,120.613L239.76,120.373L240.244,120.14L240.71,119.914L241.159,119.694L241.589,119.482L241.998,119.278L242.387,119.083L242.753,118.897L243.095,118.72L243.412,118.555L243.705,118.399L243.835,118.328L243.975,118.252L244.249,118.103L244.533,117.952L244.811,117.806L245.084,117.664L245.351,117.525L245.61,117.388L245.861,117.255L246.109,117.121L246.224,117.058L246.339,116.993L246.452,116.93L246.562,116.866L246.67,116.804L246.775,116.741L246.876,116.68L246.975,116.619L247.07,116.559L247.162,116.499L247.25,116.44L247.335,116.383L247.416,116.326L247.493,116.27L247.566,116.216L247.635,116.163L247.701,116.111L247.762,116.061L247.819,116.012L247.872,115.965L247.929,115.913L247.944,115.898L247.966,115.877L247.987,115.857L248.007,115.837L248.025,115.817L248.043,115.798L248.06,115.78L248.076,115.763L248.091,115.746L248.105,115.729L248.118,115.714L248.13,115.699L248.141,115.685L248.152,115.671L248.162,115.658L248.171,115.646L248.179,115.634L248.186,115.624L248.193,115.613L248.199,115.604L248.205,115.595L248.21,115.587L248.214,115.579L248.218,115.572L248.222,115.566L248.225,115.559L248.228,115.554L248.23,115.549L248.232,115.544L248.233,115.542L241.63,71.992L241.596,71.693L241.583,71.393L241.583,71.335L241.582,71.303L241.581,71.272L241.58,71.24L241.578,71.209L241.576,71.178L241.574,71.147L241.571,71.117L241.568,71.087L241.564,71.056L241.56,71.026L241.556,70.997L241.551,70.967L241.546,70.938L241.541,70.908L241.535,70.879L241.529,70.851L241.523,70.822L241.516,70.794L241.509,70.765L241.501,70.737L241.494,70.708L241.486,70.68L241.477,70.653L241.469,70.626L241.459,70.597L241.45,70.57L241.441,70.543L241.431,70.516L241.42,70.489L241.41,70.463L241.399,70.436L241.387,70.41L241.376,70.383L241.364,70.357L241.352,70.331L241.34,70.306L241.327,70.28L241.313,70.254L241.3,70.229L241.286,70.204L241.272,70.179L241.258,70.155L241.244,70.13L241.229,70.106L241.214,70.082L241.198,70.057L241.183,70.034L241.167,70.01L241.15,69.987L241.134,69.963L241.117,69.941L241.1,69.918L241.082,69.895L241.065,69.873L241.047,69.851L241.029,69.829L241.011,69.807L240.992,69.786L240.973,69.764L240.954,69.743L240.935,69.723L240.915,69.702L240.895,69.682L240.876,69.662L240.855,69.642L240.835,69.623L240.814,69.604L240.793,69.585L240.772,69.566L240.751,69.548L240.73,69.529L240.708,69.512L240.686,69.494L240.664,69.477L240.642,69.46L240.62,69.443L240.597,69.427L240.575,69.411L240.552,69.395L240.528,69.379L240.505,69.364L240.482,69.349L240.459,69.335L240.435,69.32L240.411,69.306L240.387,69.293L240.363,69.279L240.339,69.266L240.315,69.253L240.29,69.241L240.266,69.229L240.241,69.217L240.216,69.205L240.191,69.194L240.166,69.183L240.141,69.172L240.116,69.162L240.09,69.152L240.065,69.143L240.039,69.133L240.013,69.124L239.987,69.115L239.961,69.107L239.935,69.099L239.909,69.091L239.883,69.084L239.856,69.077L239.829,69.07L239.803,69.064L239.775,69.057L239.749,69.052L239.721,69.046L239.694,69.041L239.667,69.036L239.639,69.032L239.611,69.028L239.583,69.024L239.555,69.021L239.527,69.017L239.498,69.015L239.469,69.012L239.44,69.01L239.411,69.009L239.382,69.007L239.352,69.006L239.323,69.006L239.28,69.005L225.244,69.005Z"/>
        </g>
    </g>
</svg>
