<?xml version="1.0" encoding="UTF-8" standalone="no"?>
<!DOCTYPE svg PUBLIC "-//W3C//DTD SVG 1.1//EN" "http://www.w3.org/Graphics/SVG/1.1/DTD/svg11.dtd">
<svg width="100%" height="100%" viewBox="0 0 322 300" version="1.1" xmlns="http://www.w3.org/2000/svg" xmlns:xlink="http://www.w3.org/1999/xlink" xml:space="preserve" xmlns:serif="http://www.serif.com/" style="fill-rule:evenodd;clip-rule:evenodd;stroke-linejoin:round;stroke-miterlimit:1.41421;">
    <g transform="matrix(1,0,0,1,-2429,0)">
        <g id="Artboard3" transform="matrix(1.07333,0,0,1,1524.18,0)">
            <rect x="843" y="0" width="300" height="300" style="fill:none;"/>
            <g transform="matrix(1.11104,4.45055,-4.14647,1.19252,1038.62,-64.2155)">
                <path d="M62.713,17.909L28.795,-16.009L17.929,-5.144L51.848,28.774L33.938,46.684L44.804,57.548L62.713,39.64L73.578,28.774L62.713,17.909Z" style="fill:none;stroke:black;stroke-width:0.9px;"/>
            </g>
            <g transform="matrix(1.17069,0,0,1.25654,-156.714,-39.379)">
                <path d="M940.169,239.978L973.394,259.159L927.421,259.159C897.297,259.159 872.841,234.703 872.841,204.579L872.841,201.104L940.169,239.978ZM1091.01,91.401C1091.11,92.728 1091.16,94.069 1091.16,95.421L1091.16,204.579C1091.16,234.703 1066.7,259.159 1036.58,259.159L994.157,259.159L1017.14,219.355L1091.01,91.401ZM1036.58,40.841C1042.51,40.841 1048.23,41.791 1053.58,43.545L968.344,191.183L887.911,144.745L872.841,170.852L872.841,95.421C872.841,65.298 897.297,40.842 927.421,40.841L1036.58,40.841Z" style="fill:none;stroke:black;stroke-width:3.32px;stroke-linecap:round;stroke-miterlimit:1.5;"/>
            </g>
        </g>
    </g>
</svg>
