<?xml version="1.0" encoding="UTF-8" standalone="no"?><!DOCTYPE svg PUBLIC "-//W3C//DTD SVG 1.1//EN" "http://www.w3.org/Graphics/SVG/1.1/DTD/svg11.dtd"><svg width="100%" height="100%" viewBox="0 0 131 72" version="1.1" xmlns="http://www.w3.org/2000/svg" xmlns:xlink="http://www.w3.org/1999/xlink" xml:space="preserve" xmlns:serif="http://www.serif.com/" style="fill-rule:evenodd;clip-rule:evenodd;stroke-linejoin:round;stroke-miterlimit:1.41421;"><rect id="Artboard4" x="0" y="0" width="130.56" height="72" style="fill:none;"/><path id="path6219" d="M33.152,13.309c2.833,0 5.136,-2.306 5.136,-5.136c0,-2.829 -2.303,-5.135 -5.136,-5.135c-2.823,0 -5.132,2.306 -5.132,5.135c0,2.83 2.309,5.136 5.132,5.136" style="fill:none;stroke:#000;stroke-width:1px;"/><path id="path6223" d="M109.234,29.55c2.826,0 5.135,-2.309 5.135,-5.133c0,-2.832 -2.309,-5.135 -5.135,-5.135c-2.827,0 -5.136,2.303 -5.136,5.135c0,2.824 2.309,5.133 5.136,5.133" style="fill:none;stroke:#000;stroke-width:1px;"/><path id="path6227" d="M26.499,10.26l-12.797,8.555c-1.641,0.957 -2.256,2.462 -1.738,4.59c0.147,0.665 0.339,1.216 0.486,1.878c-2.08,-0.537 -4.173,-0.921 -6.259,-1.461l-1.391,5.981l17.666,3.895l5.146,9.876l5.981,-1.391l-1.321,-6.398l65.724,14.257l-3.895,5.216l4.799,3.756l8.903,-6.746l17.665,3.895l1.252,-5.982c-2.114,-0.389 -4.209,-0.932 -6.329,-1.321c0.415,-0.537 0.84,-0.993 1.252,-1.53c1.363,-1.717 1.502,-3.311 0.417,-4.869l-8.068,-13.144c-2.092,0.375 -4.167,0.734 -6.259,1.112c-2.988,2.014 -5.984,4.031 -8.972,6.051c-0.923,0.651 -1.321,1.566 -1.182,2.713l0.348,1.53l-1.322,2.851l-60.369,-13.075l0,-3.13l0.974,-1.252c0.615,-0.982 0.634,-1.939 0.07,-2.921c-1.864,-3.085 -3.706,-6.162 -5.564,-9.25c-1.739,-1.224 -3.478,-2.462 -5.217,-3.686Zm3.2,8.555l4.938,6.05l-0.557,5.217l-3.477,-0.765l-5.008,-6.121l4.104,-4.381Zm77.756,16.9l1.878,5.703l-7.094,3.408l-3.478,-0.765l1.669,-4.938l7.025,-3.408Z" style="fill:none;stroke:#000;stroke-width:1px;"/><path id="path6235" d="M59.695,69.015l0,-20.094l6.07,-5.464l6.204,5.464l0,20.094l-12.274,0Z" style="fill:none;stroke:#000;stroke-width:1px;"/></svg>