<?xml version="1.0" encoding="UTF-8" standalone="no"?>
<!DOCTYPE svg PUBLIC "-//W3C//DTD SVG 1.1//EN" "http://www.w3.org/Graphics/SVG/1.1/DTD/svg11.dtd">
<svg width="100%" height="100%" viewBox="0 0 559 300" version="1.1" xmlns="http://www.w3.org/2000/svg" xmlns:xlink="http://www.w3.org/1999/xlink" xml:space="preserve" xmlns:serif="http://www.serif.com/" style="fill-rule:evenodd;clip-rule:evenodd;stroke-linejoin:round;stroke-miterlimit:1.41421;">
    <g id="Artboard9" transform="matrix(1.86333,0,0,1,629.807,0)">
        <rect x="-338" y="0" width="300" height="300" style="fill:none;"/>
        <g transform="matrix(2.68347,0,0,5.00019,-344.84,-16.6466)">
            <path d="M38.086,30.396L38.086,35.815L43.688,36.877C43.872,40.649 43.505,44.531 41.601,48.23L40.319,46.984C36.73,43.579 30.505,36.4 26.989,32.043C34.972,27.831 39.44,23.949 39.44,15.893C39.44,10.583 35.009,5.089 24.828,5.089C15.307,5.089 8.056,11.205 8.056,19.115C8.056,24.938 11.022,30.211 14.172,34.276C8.971,36.657 3.149,40.978 3.149,47.863C3.149,57.493 11.279,62.327 24.389,62.327C29.406,62.327 34.166,61.375 37.645,58.995C40.941,61.303 43.468,62.107 47.606,62.107C48.998,62.107 53.429,61.741 54.674,60.863L54.674,56.212C51.012,55.919 48.229,54.271 45.556,52C48.339,48.778 51.195,43.541 51.159,36.876L56.433,35.814L56.433,30.395L38.086,30.395L38.086,30.396ZM24.243,28.637C22.229,26.147 19.153,22.082 19.153,17.101C19.153,12.011 21.46,9.301 24.755,9.301C29.114,9.301 29.7,13.585 29.7,15.929C29.7,20.69 28.601,24.755 24.244,28.637L24.243,28.637ZM32.996,55.333C30.982,56.432 28.529,56.945 25.598,56.945C17.908,56.945 13.696,52.33 13.696,46.178C13.696,42.625 15.198,40.245 17.285,38.157C21.717,43.651 27.833,50.901 32.996,55.333L32.996,55.333Z" style="fill:none;stroke:black;stroke-width:0.83px;"/>
        </g>
        <g transform="matrix(2.68347,0,0,5.00019,-344.84,-16.6466)">
            <path d="M95.398,30.396L95.398,35.815L101,36.877C101.184,40.649 100.817,44.531 98.913,48.23L97.631,46.984C94.042,43.579 87.817,36.4 84.301,32.043C92.284,27.831 96.752,23.949 96.752,15.893C96.752,10.583 92.321,5.089 82.14,5.089C72.619,5.089 65.368,11.205 65.368,19.115C65.368,24.938 68.334,30.211 71.484,34.276C66.283,36.657 60.461,40.978 60.461,47.863C60.461,57.493 68.591,62.327 81.701,62.327C86.718,62.327 91.478,61.375 94.957,58.995C98.253,61.303 100.78,62.107 104.918,62.107C106.31,62.107 110.741,61.741 111.986,60.863L111.986,56.212C108.324,55.919 105.541,54.271 102.868,52C105.651,48.778 108.507,43.541 108.471,36.876L113.745,35.814L113.745,30.395L95.398,30.395L95.398,30.396ZM81.555,28.637C79.541,26.147 76.465,22.082 76.465,17.101C76.465,12.011 78.772,9.301 82.068,9.301C86.426,9.301 87.012,13.585 87.012,15.929C87.012,20.69 85.913,24.755 81.556,28.637L81.555,28.637ZM90.308,55.333C88.294,56.432 85.841,56.945 82.91,56.945C75.22,56.945 71.008,52.33 71.008,46.178C71.008,42.625 72.51,40.245 74.597,38.157C79.029,43.651 85.145,50.901 90.308,55.333L90.308,55.333Z" style="fill:none;stroke:black;stroke-width:0.83px;"/>
        </g>
    </g>
</svg>
