<?xml version="1.0" encoding="UTF-8" standalone="no"?><!DOCTYPE svg PUBLIC "-//W3C//DTD SVG 1.1//EN" "http://www.w3.org/Graphics/SVG/1.1/DTD/svg11.dtd"><svg width="100%" height="100%" viewBox="0 0 368 143" version="1.1" xmlns="http://www.w3.org/2000/svg" xmlns:xlink="http://www.w3.org/1999/xlink" xml:space="preserve" xmlns:serif="http://www.serif.com/" style="fill-rule:evenodd;clip-rule:evenodd;stroke-linejoin:round;stroke-miterlimit:2;"><rect id="treemap" x="0" y="0" width="368" height="143" style="fill:none;"/><rect x="1" y="1.249" width="161.123" height="138.565" style="fill:#c8ebf7;"/><path d="M162.123,139.814l-161.123,0l0,-138.565l161.123,0l0,138.565Zm-160.823,-138.265l0,137.965l160.523,0l0,-137.965l-160.523,0Z"/><rect x="163.259" y="1.249" width="75.986" height="138.565" style="fill:#f7c9c8;"/><path d="M239.245,139.814l-75.986,0l0,-138.565l75.986,0l0,138.565Zm-75.686,-138.265l0,137.965l75.386,0l0,-137.965l-75.386,0Z"/><rect x="240.381" y="1.249" width="81.383" height="118.748" style="fill:#ccf7c8;"/><path d="M321.763,119.997l-81.382,0l0,-118.748l81.382,0l0,118.748Zm-81.082,-118.448l0,118.148l80.782,0l0,-118.148l-80.782,0Z"/><rect x="240.381" y="121.267" width="126.37" height="18.547" style="fill:#f3c8f7;"/><path d="M366.75,139.814l-126.369,0l0,-18.547l126.369,0l0,18.547Zm-126.069,-18.247l0,17.947l125.769,0l0,-17.947l-125.769,0Z"/><rect x="322.899" y="1.249" width="43.851" height="118.748" style="fill:#f4f7c8;"/><path d="M366.75,119.997l-43.851,0l0,-118.748l43.851,0l0,118.748Zm-43.551,-118.448l0,118.148l43.251,0l0,-118.148l-43.251,0Z"/><text x="3.361px" y="11.864px" style="font-family:'ArialMT', 'Arial', sans-serif;font-size:8.498px;">open web platform</text><text x="165.938px" y="11.864px" style="font-family:'ArialMT', 'Arial', sans-serif;font-size:8.498px;">format</text><text x="242.742px" y="11.864px" style="font-family:'ArialMT', 'Arial', sans-serif;font-size:8.498px;">user agent</text><text x="325.557px" y="11.864px" style="font-family:'ArialMT', 'Arial', sans-serif;font-size:8.498px;">ui</text><text x="243.967px" y="131.993px" style="font-family:'ArialMT', 'Arial', sans-serif;font-size:8.498px;">infrastructure</text></svg>