<?xml version="1.0" standalone="no"?>
<!DOCTYPE svg PUBLIC "-//W3C//DTD SVG 20010904//EN"
 "http://www.w3.org/TR/2001/REC-SVG-20010904/DTD/svg10.dtd">
<svg version="1.0" xmlns="http://www.w3.org/2000/svg"
 width="512.000000pt" height="512.000000pt" viewBox="0 0 512.000000 512.000000"
 preserveAspectRatio="xMidYMid meet">
<metadata>
Created by potrace 1.11, written by Peter Selinger 2001-2013
</metadata>
<g transform="translate(0.000000,512.000000) scale(0.100000,-0.100000)"
fill="#000000" stroke="none">
<path d="M1106 3744 c-150 -33 -251 -89 -347 -192 -192 -205 -179 -504 34
-821 32 -46 57 -87 57 -91 0 -3 -17 -14 -37 -24 -67 -31 -169 -105 -226 -161
-118 -115 -165 -248 -146 -410 18 -144 86 -257 207 -339 127 -87 293 -131 530
-142 211 -10 375 18 520 89 l63 30 78 -41 c112 -60 188 -75 341 -69 82 4 144
12 180 24 l55 18 0 90 0 89 -58 12 c-66 13 -205 80 -256 122 l-34 29 41 54
c53 70 125 224 147 313 9 38 19 102 22 142 l6 72 96 19 96 19 3 107 3 107
-351 0 -351 0 3 -107 3 -108 103 -18 102 -19 0 -76 c0 -92 -13 -178 -40 -264
-33 -106 -27 -107 -154 23 -111 114 -436 487 -436 501 0 4 19 17 43 29 159 81
319 225 371 334 94 198 66 414 -69 533 -56 50 -144 96 -220 117 -88 24 -292
29 -379 9z m246 -170 c36 -19 74 -70 87 -119 18 -65 13 -212 -9 -299 -25 -100
-61 -166 -131 -240 l-56 -60 -52 75 c-109 155 -154 299 -134 434 12 86 46 159
89 191 55 43 142 50 206 18z m-281 -1199 c135 -163 224 -262 368 -407 74 -76
132 -140 128 -144 -21 -21 -133 -46 -227 -51 -277 -14 -456 111 -492 343 -13
87 -4 157 31 231 29 60 87 136 101 131 4 -2 45 -48 91 -103z"/>
<path d="M3319 3746 c-209 -44 -370 -161 -448 -326 -33 -69 -36 -84 -39 -181
-6 -173 46 -333 167 -513 28 -41 51 -79 51 -83 0 -4 -37 -28 -81 -53 -45 -24
-113 -74 -152 -110 -125 -115 -177 -223 -177 -364 0 -344 256 -534 745 -552
228 -9 398 22 530 95 l50 28 30 -19 c56 -36 150 -75 213 -88 101 -21 360 0
400 33 9 7 12 35 10 96 l-3 86 -49 8 c-63 10 -161 55 -236 108 -33 23 -60 43
-60 45 0 2 18 27 40 56 90 118 156 294 167 444 l6 82 86 16 c135 27 122 13
119 129 l-3 102 -352 3 -353 2 0 -104 c0 -120 -12 -106 119 -131 47 -8 87 -18
90 -21 13 -13 0 -198 -19 -274 -21 -83 -48 -150 -61 -150 -20 0 -534 572 -547
609 -2 5 31 27 71 49 278 153 407 345 395 589 -4 66 -10 93 -36 146 -54 108
-166 193 -308 232 -82 22 -281 28 -365 11z m248 -177 c122 -75 117 -404 -9
-586 -40 -59 -97 -123 -108 -123 -11 0 -82 102 -120 174 -54 100 -74 175 -73
276 2 143 54 241 149 276 48 17 117 10 161 -17z m-268 -1225 c140 -167 314
-357 410 -446 l72 -67 -31 -16 c-122 -63 -375 -57 -501 12 -216 117 -270 421
-109 616 17 20 35 37 39 37 4 0 58 -61 120 -136z"/>
</g>
</svg>
